<svg xmlns="http://www.w3.org/2000/svg" viewBox="0 0 191.39 44.26"><defs><style>.cls-1{fill:#0c3b60;}.cls-2{fill:#62b3e4;}.cls-3{fill:#0c3c61;}.cls-4{fill:#fff;}.cls-5{fill:#231f20;}</style></defs><g id="Layer_2" data-name="Layer 2"><g id="Inverse"><path class="cls-1" d="M70.17,19.63c0,4-3,6.47-7.77,6.47H58.79V31H54.65V13.14H62.4C67.18,13.14,70.17,15.62,70.17,19.63Zm-4.2,0c0-2-1.27-3.12-3.8-3.12H58.79v6.21h3.38C64.7,22.72,66,21.57,66,19.63Z"/><path class="cls-1" d="M84.6,23.18V31H80.87V29.32c-.74,1.25-2.17,1.91-4.19,1.91-3.22,0-5.14-1.79-5.14-4.16S73.25,23,77.45,23h3.16c0-1.71-1-2.71-3.16-2.71a6.65,6.65,0,0,0-4,1.28l-1.43-2.79A10.6,10.6,0,0,1,78,17.07C82.17,17.07,84.6,19,84.6,23.18Zm-4,3.5v-1.4H77.88c-1.87,0-2.45.69-2.45,1.61s.84,1.66,2.25,1.66A2.93,2.93,0,0,0,80.61,26.68Z"/><path class="cls-1" d="M96,17.07v3.68c-.33,0-.59-.05-.89-.05-2.2,0-3.66,1.2-3.66,3.84V31h-4V17.28h3.81v1.81A5.55,5.55,0,0,1,96,17.07Z"/><path class="cls-1" d="M122.38,13.14V31h-4.14V23.69h-8.13V31H106V13.14h4.14v7.05h8.13v-7Z"/><path class="cls-1" d="M138.23,23.18V31H134.5V29.32c-.74,1.25-2.17,1.91-4.19,1.91-3.22,0-5.14-1.79-5.14-4.16S126.89,23,131.08,23h3.17c0-1.71-1-2.71-3.17-2.71a6.6,6.6,0,0,0-4,1.28l-1.43-2.79a10.58,10.58,0,0,1,5.93-1.66C135.81,17.07,138.23,19,138.23,23.18Zm-4,3.5v-1.4h-2.74c-1.86,0-2.45.69-2.45,1.61s.84,1.66,2.25,1.66A2.93,2.93,0,0,0,134.25,26.68Z"/><path class="cls-1" d="M163,17.28l-5,13.75h-3.83l-3.09-8.54L147.93,31H144.1l-5-13.75h3.76l3.24,9.3,3.38-9.3h3.37l3.27,9.3,3.35-9.3Z"/><path class="cls-1" d="M176.73,23.18V31H173V29.32c-.74,1.25-2.17,1.91-4.19,1.91-3.22,0-5.13-1.79-5.13-4.16s1.71-4.12,5.9-4.12h3.17c0-1.71-1-2.71-3.17-2.71a6.62,6.62,0,0,0-4,1.28l-1.43-2.79a10.6,10.6,0,0,1,5.93-1.66C174.3,17.07,176.73,19,176.73,23.18Zm-4,3.5v-1.4H170c-1.86,0-2.45.69-2.45,1.61s.84,1.66,2.25,1.66A2.93,2.93,0,0,0,172.74,26.68Z"/><path class="cls-1" d="M179.26,13.14a2.28,2.28,0,0,1,2.47-2.23,2.24,2.24,0,0,1,2.48,2.15,2.49,2.49,0,0,1-5,.08Zm.48,4.14h4V31h-4Z"/><path class="cls-1" d="M186.44,13.14a2.28,2.28,0,0,1,2.48-2.23,2.23,2.23,0,0,1,2.47,2.15,2.49,2.49,0,0,1-4.95.08Zm.48,4.14h4V31h-4Z"/><path class="cls-2" d="M38.15,34.45a20.79,20.79,0,0,1-4.67,4.12,21,21,0,0,1-5.61,2.54,21.88,21.88,0,0,1-3,.62,20.79,20.79,0,0,1-3,.16c-.56,0-1,0-1.55-.09s-1-.11-1.51-.19a21.81,21.81,0,0,1-3-.73,21,21,0,0,1-5.49-2.66A19.46,19.46,0,0,1,5.87,34a18.36,18.36,0,0,1-2.24-3.89l.84.19c.83.23,1.64.5,2.46.79a50.15,50.15,0,0,1,4.77,2.07c.78.39,1.56.77,2.33,1.17l1.2.62c.43.21.87.4,1.31.58a18.08,18.08,0,0,0,2.74.83c.47.1.95.18,1.43.24a12.12,12.12,0,0,0,1.48.09h-.1a9,9,0,0,0,1.16,0c.37,0,.73-.06,1.1-.11a12.3,12.3,0,0,0,2.14-.5,11,11,0,0,0,2-.87c.33-.18.64-.38.95-.58l.8-.56c1.09-.72,2.17-1.46,3.28-2.17A20.81,20.81,0,0,1,37,30a5.16,5.16,0,0,0-1,0,8.8,8.8,0,0,0-1,.14,16.64,16.64,0,0,0-2,.53,29,29,0,0,0-3.77,1.56l-.92.47c-.27.13-.53.27-.8.38a12.81,12.81,0,0,1-1.69.55,13.08,13.08,0,0,1-1.77.3c-.3,0-.6.06-.89.07s-.62,0-.84,0h-.09a13.76,13.76,0,0,1-4.72-.9c-.38-.15-.76-.3-1.13-.47l-1.18-.56c-.81-.4-1.64-.75-2.47-1.1-1.67-.69-3.38-1.28-5.12-1.81-.87-.26-1.74-.49-2.63-.7l-1.35-.31c-.47-.09-.88-.18-1.43-.26L.7,27.67l.42,1.52h0a19.74,19.74,0,0,0,3.05,6.08A22.21,22.21,0,0,0,15.05,43.2a19.94,19.94,0,0,0,3.33.8c.57.09,1.13.16,1.7.2a16.77,16.77,0,0,0,1.7.06A21.52,21.52,0,0,0,25.2,44a20,20,0,0,0,3.31-.81,20.88,20.88,0,0,0,6-3.13,21.47,21.47,0,0,0,4.66-4.81,16,16,0,0,0,1.65-2.89,12.69,12.69,0,0,0,.94-3.17A39.2,39.2,0,0,1,38.15,34.45Z"/><path class="cls-3" d="M25.16,26.43c2.13-11-3.52-17.63-3.52-17.63S16,15.47,18.11,26.43c0,0,1.67-7.39,3.53-9.1C23.49,19,25.16,26.43,25.16,26.43Z"/><path class="cls-3" d="M43.48,19.44a21.65,21.65,0,0,0-1-4.49,21.31,21.31,0,0,0-4.65-7.87A22.17,22.17,0,0,0,17,.48a21,21,0,0,0-4.3,1.41A22,22,0,0,0,5.51,7.17,21.7,21.7,0,0,0,1,14.84a21.42,21.42,0,0,0-.95,4.34,11.82,11.82,0,0,0,.34,4.39C.66,22.1.79,20.7,1,19.3a21,21,0,0,1,1.08-4.07A20.28,20.28,0,0,1,13.47,3.6a19.71,19.71,0,0,1,4-1.15,20.13,20.13,0,0,1,4.11-.33A19.85,19.85,0,0,1,36,8.8a21.18,21.18,0,0,1,4.07,7A20.29,20.29,0,0,1,41,19.74c.08.67.14,1.29.16,2q0,.51,0,1.08l-.29,0c-.48.07-1,.12-1.43.17L38,23.29l-1.39.29c-.91.23-1.83.47-2.73.76l-.12.05a18.48,18.48,0,0,1-6.27-5c-.11,1.6-.07,3.15-.27,4.67a33,33,0,0,1-.75,3.6l-.14.07a12.32,12.32,0,0,1-2.31.7,9.45,9.45,0,0,1-1.19.16,8.09,8.09,0,0,1-1.08,0h-.2a11.5,11.5,0,0,1-4-.73l-.87-.32a26.89,26.89,0,0,1-.88-7.91,19.41,19.41,0,0,1-6.67,5.17l-.2,0a14.19,14.19,0,0,0-2.34-.18,9.87,9.87,0,0,0-2.31.28,15.28,15.28,0,0,1,4.37,1,25.06,25.06,0,0,1,4,1.9l.93.58,1,.62a15.73,15.73,0,0,0,2.14,1.15,16,16,0,0,0,2.32.84,10.63,10.63,0,0,0,2.43.36,9.44,9.44,0,0,0,1.58,0,10.7,10.7,0,0,0,1.52-.19,12.12,12.12,0,0,0,2.9-.93,12.94,12.94,0,0,0,1.33-.7l.59-.38.55-.33c.75-.44,1.53-.86,2.32-1.24s1.59-.74,2.41-1,1.66-.59,2.5-.82l1.27-.3c.43-.08.86-.16,1.29-.22s.86-.09,1.29-.12.87,0,1.29,0h0l1,0L43.46,24a15,15,0,0,0,.14-2.27A22.8,22.8,0,0,0,43.48,19.44Z"/><path class="cls-4" d="M70.17,19.63c0,4-3,6.47-7.77,6.47H58.79V31H54.65V13.14H62.4C67.18,13.14,70.17,15.62,70.17,19.63Zm-4.2,0c0-2-1.27-3.12-3.8-3.12H58.79v6.21h3.38C64.7,22.72,66,21.57,66,19.63Z"/><path class="cls-4" d="M84.6,23.18V31H80.87V29.32c-.74,1.25-2.17,1.91-4.19,1.91-3.22,0-5.14-1.79-5.14-4.16S73.25,23,77.45,23h3.16c0-1.71-1-2.71-3.16-2.71a6.65,6.65,0,0,0-4,1.28l-1.43-2.79A10.6,10.6,0,0,1,78,17.07C82.17,17.07,84.6,19,84.6,23.18Zm-4,3.5v-1.4H77.88c-1.87,0-2.45.69-2.45,1.61s.84,1.66,2.25,1.66A2.93,2.93,0,0,0,80.61,26.68Z"/><path class="cls-4" d="M96,17.07v3.68c-.33,0-.59-.05-.89-.05-2.2,0-3.66,1.2-3.66,3.84V31h-4V17.28h3.81v1.81A5.55,5.55,0,0,1,96,17.07Z"/><path class="cls-4" d="M122.38,13.14V31h-4.14V23.69h-8.13V31H106V13.14h4.14v7.05h8.13v-7Z"/><path class="cls-4" d="M138.23,23.18V31H134.5V29.32c-.74,1.25-2.17,1.91-4.19,1.91-3.22,0-5.14-1.79-5.14-4.16S126.89,23,131.08,23h3.17c0-1.71-1-2.71-3.17-2.71a6.6,6.6,0,0,0-4,1.28l-1.43-2.79a10.58,10.58,0,0,1,5.93-1.66C135.81,17.07,138.23,19,138.23,23.18Zm-4,3.5v-1.4h-2.74c-1.86,0-2.45.69-2.45,1.61s.84,1.66,2.25,1.66A2.93,2.93,0,0,0,134.25,26.68Z"/><path class="cls-4" d="M163,17.28l-5,13.75h-3.83l-3.09-8.54L147.93,31H144.1l-5-13.75h3.76l3.24,9.3,3.38-9.3h3.37l3.27,9.3,3.35-9.3Z"/><path class="cls-4" d="M176.73,23.18V31H173V29.32c-.74,1.25-2.17,1.91-4.19,1.91-3.22,0-5.13-1.79-5.13-4.16s1.71-4.12,5.9-4.12h3.17c0-1.71-1-2.71-3.17-2.71a6.62,6.62,0,0,0-4,1.28l-1.43-2.79a10.6,10.6,0,0,1,5.93-1.66C174.3,17.07,176.73,19,176.73,23.18Zm-4,3.5v-1.4H170c-1.86,0-2.45.69-2.45,1.61s.84,1.66,2.25,1.66A2.93,2.93,0,0,0,172.74,26.68Z"/><path class="cls-4" d="M179.26,13.14a2.28,2.28,0,0,1,2.47-2.23,2.24,2.24,0,0,1,2.48,2.15,2.49,2.49,0,0,1-5,.08Zm.48,4.14h4V31h-4Z"/><path class="cls-4" d="M186.44,13.14a2.28,2.28,0,0,1,2.48-2.23,2.23,2.23,0,0,1,2.47,2.15,2.49,2.49,0,0,1-4.95.08Zm.48,4.14h4V31h-4Z"/><path class="cls-4" d="M38.15,34.45a20.79,20.79,0,0,1-4.67,4.12,21,21,0,0,1-5.61,2.54,21.88,21.88,0,0,1-3,.62,20.79,20.79,0,0,1-3,.16c-.56,0-1,0-1.55-.09s-1-.11-1.51-.19a21.81,21.81,0,0,1-3-.73,21,21,0,0,1-5.49-2.66A19.46,19.46,0,0,1,5.87,34a18.36,18.36,0,0,1-2.24-3.89l.84.19c.83.23,1.64.5,2.46.79a50.15,50.15,0,0,1,4.77,2.07c.78.39,1.56.77,2.33,1.17l1.2.62c.43.21.87.4,1.31.58a18.08,18.08,0,0,0,2.74.83c.47.1.95.18,1.43.24a12.12,12.12,0,0,0,1.48.09h-.1a9,9,0,0,0,1.16,0c.37,0,.73-.06,1.1-.11a12.3,12.3,0,0,0,2.14-.5,11,11,0,0,0,2-.87c.33-.18.64-.38.95-.58l.8-.56c1.09-.72,2.17-1.46,3.28-2.17A20.81,20.81,0,0,1,37,30a5.16,5.16,0,0,0-1,0,8.8,8.8,0,0,0-1,.14,16.64,16.64,0,0,0-2,.53,29,29,0,0,0-3.77,1.56l-.92.47c-.27.13-.53.27-.8.38a12.81,12.81,0,0,1-1.69.55,13.08,13.08,0,0,1-1.77.3c-.3,0-.6.06-.89.07s-.62,0-.84,0h-.09a13.76,13.76,0,0,1-4.72-.9c-.38-.15-.76-.3-1.13-.47l-1.18-.56c-.81-.4-1.64-.75-2.47-1.1-1.67-.69-3.38-1.28-5.12-1.81-.87-.26-1.74-.49-2.63-.7l-1.35-.31c-.47-.09-.88-.18-1.43-.26L.7,27.67l.42,1.52h0a19.74,19.74,0,0,0,3.05,6.08A22.21,22.21,0,0,0,15.05,43.2a19.94,19.94,0,0,0,3.33.8c.57.09,1.13.16,1.7.2a16.77,16.77,0,0,0,1.7.06A21.52,21.52,0,0,0,25.2,44a20,20,0,0,0,3.31-.81,20.88,20.88,0,0,0,6-3.13,21.47,21.47,0,0,0,4.66-4.81,16,16,0,0,0,1.65-2.89,12.69,12.69,0,0,0,.94-3.17A39.2,39.2,0,0,1,38.15,34.45Z"/><path class="cls-4" d="M25.16,26.43c2.13-11-3.52-17.63-3.52-17.63S16,15.47,18.11,26.43c0,0,1.67-7.39,3.53-9.1C23.49,19,25.16,26.43,25.16,26.43Z"/><path class="cls-4" d="M43.48,19.44a21.65,21.65,0,0,0-1-4.49,21.31,21.31,0,0,0-4.65-7.87A22.17,22.17,0,0,0,17,.48a21,21,0,0,0-4.3,1.41A22,22,0,0,0,5.51,7.17,21.7,21.7,0,0,0,1,14.84a21.42,21.42,0,0,0-.95,4.34,11.82,11.82,0,0,0,.34,4.39C.66,22.1.79,20.7,1,19.3a21,21,0,0,1,1.08-4.07A20.28,20.28,0,0,1,13.47,3.6a19.71,19.71,0,0,1,4-1.15,20.13,20.13,0,0,1,4.11-.33A19.85,19.85,0,0,1,36,8.8a21.18,21.18,0,0,1,4.07,7A20.29,20.29,0,0,1,41,19.74c.08.67.14,1.29.16,2q0,.51,0,1.08l-.29,0c-.48.07-1,.12-1.43.17L38,23.29l-1.39.29c-.91.23-1.83.47-2.73.76l-.12.05a18.48,18.48,0,0,1-6.27-5c-.11,1.6-.07,3.15-.27,4.67a33,33,0,0,1-.75,3.6l-.14.07a12.32,12.32,0,0,1-2.31.7,9.45,9.45,0,0,1-1.19.16,8.09,8.09,0,0,1-1.08,0h-.2a11.5,11.5,0,0,1-4-.73l-.87-.32a26.89,26.89,0,0,1-.88-7.91,19.41,19.41,0,0,1-6.67,5.17l-.2,0a14.19,14.19,0,0,0-2.34-.18,9.87,9.87,0,0,0-2.31.28,15.28,15.28,0,0,1,4.37,1,25.06,25.06,0,0,1,4,1.9l.93.58,1,.62a15.73,15.73,0,0,0,2.14,1.15,16,16,0,0,0,2.32.84,10.63,10.63,0,0,0,2.43.36,9.44,9.44,0,0,0,1.58,0,10.7,10.7,0,0,0,1.52-.19,12.12,12.12,0,0,0,2.9-.93,12.94,12.94,0,0,0,1.33-.7l.59-.38.55-.33c.75-.44,1.53-.86,2.32-1.24s1.59-.74,2.41-1,1.66-.59,2.5-.82l1.27-.3c.43-.08.86-.16,1.29-.22s.86-.09,1.29-.12.87,0,1.29,0h0l1,0L43.46,24a15,15,0,0,0,.14-2.27A22.8,22.8,0,0,0,43.48,19.44Z"/></g><g id="Black"><path class="cls-1" d="M70.17,19.63c0,4-3,6.47-7.77,6.47H58.79V31H54.65V13.14H62.4C67.18,13.14,70.17,15.62,70.17,19.63Zm-4.2,0c0-2-1.27-3.12-3.8-3.12H58.79v6.21h3.38C64.7,22.72,66,21.57,66,19.63Z"/><path class="cls-1" d="M84.6,23.18V31H80.87V29.32c-.74,1.25-2.17,1.91-4.19,1.91-3.22,0-5.14-1.79-5.14-4.16S73.25,23,77.45,23h3.16c0-1.71-1-2.71-3.16-2.71a6.65,6.65,0,0,0-4,1.28l-1.43-2.79A10.6,10.6,0,0,1,78,17.07C82.17,17.07,84.6,19,84.6,23.18Zm-4,3.5v-1.4H77.88c-1.87,0-2.45.69-2.45,1.61s.84,1.66,2.25,1.66A2.93,2.93,0,0,0,80.61,26.68Z"/><path class="cls-1" d="M96,17.07v3.68c-.33,0-.59-.05-.89-.05-2.2,0-3.66,1.2-3.66,3.84V31h-4V17.28h3.81v1.81A5.55,5.55,0,0,1,96,17.07Z"/><path class="cls-1" d="M122.38,13.14V31h-4.14V23.69h-8.13V31H106V13.14h4.14v7.05h8.13v-7Z"/><path class="cls-1" d="M138.23,23.18V31H134.5V29.32c-.74,1.25-2.17,1.91-4.19,1.91-3.22,0-5.14-1.79-5.14-4.16S126.89,23,131.08,23h3.17c0-1.71-1-2.71-3.17-2.71a6.6,6.6,0,0,0-4,1.28l-1.43-2.79a10.58,10.58,0,0,1,5.93-1.66C135.81,17.07,138.23,19,138.23,23.18Zm-4,3.5v-1.4h-2.74c-1.86,0-2.45.69-2.45,1.61s.84,1.66,2.25,1.66A2.93,2.93,0,0,0,134.25,26.68Z"/><path class="cls-1" d="M163,17.28l-5,13.75h-3.83l-3.09-8.54L147.93,31H144.1l-5-13.75h3.76l3.24,9.3,3.38-9.3h3.37l3.27,9.3,3.35-9.3Z"/><path class="cls-1" d="M176.73,23.18V31H173V29.32c-.74,1.25-2.17,1.91-4.19,1.91-3.22,0-5.13-1.79-5.13-4.16s1.71-4.12,5.9-4.12h3.17c0-1.71-1-2.71-3.17-2.71a6.62,6.62,0,0,0-4,1.28l-1.43-2.79a10.6,10.6,0,0,1,5.93-1.66C174.3,17.07,176.73,19,176.73,23.18Zm-4,3.5v-1.4H170c-1.86,0-2.45.69-2.45,1.61s.84,1.66,2.25,1.66A2.93,2.93,0,0,0,172.74,26.68Z"/><path class="cls-1" d="M179.26,13.14a2.28,2.28,0,0,1,2.47-2.23,2.24,2.24,0,0,1,2.48,2.15,2.49,2.49,0,0,1-5,.08Zm.48,4.14h4V31h-4Z"/><path class="cls-1" d="M186.44,13.14a2.28,2.28,0,0,1,2.48-2.23,2.23,2.23,0,0,1,2.47,2.15,2.49,2.49,0,0,1-4.95.08Zm.48,4.14h4V31h-4Z"/><path class="cls-2" d="M38.15,34.45a20.79,20.79,0,0,1-4.67,4.12,21,21,0,0,1-5.61,2.54,21.88,21.88,0,0,1-3,.62,20.79,20.79,0,0,1-3,.16c-.56,0-1,0-1.55-.09s-1-.11-1.51-.19a21.81,21.81,0,0,1-3-.73,21,21,0,0,1-5.49-2.66A19.46,19.46,0,0,1,5.87,34a18.36,18.36,0,0,1-2.24-3.89l.84.19c.83.23,1.64.5,2.46.79a50.15,50.15,0,0,1,4.77,2.07c.78.39,1.56.77,2.33,1.17l1.2.62c.43.21.87.4,1.31.58a18.08,18.08,0,0,0,2.74.83c.47.1.95.18,1.43.24a12.12,12.12,0,0,0,1.48.09h-.1a9,9,0,0,0,1.16,0c.37,0,.73-.06,1.1-.11a12.3,12.3,0,0,0,2.14-.5,11,11,0,0,0,2-.87c.33-.18.64-.38.95-.58l.8-.56c1.09-.72,2.17-1.46,3.28-2.17A20.81,20.81,0,0,1,37,30a5.16,5.16,0,0,0-1,0,8.8,8.8,0,0,0-1,.14,16.64,16.64,0,0,0-2,.53,29,29,0,0,0-3.77,1.56l-.92.47c-.27.13-.53.27-.8.38a12.81,12.81,0,0,1-1.69.55,13.08,13.08,0,0,1-1.77.3c-.3,0-.6.06-.89.07s-.62,0-.84,0h-.09a13.76,13.76,0,0,1-4.72-.9c-.38-.15-.76-.3-1.13-.47l-1.18-.56c-.81-.4-1.64-.75-2.47-1.1-1.67-.69-3.38-1.28-5.12-1.81-.87-.26-1.74-.49-2.63-.7l-1.35-.31c-.47-.09-.88-.18-1.43-.26L.7,27.67l.42,1.52h0a19.74,19.74,0,0,0,3.05,6.08A22.21,22.21,0,0,0,15.05,43.2a19.94,19.94,0,0,0,3.33.8c.57.09,1.13.16,1.7.2a16.77,16.77,0,0,0,1.7.06A21.52,21.52,0,0,0,25.2,44a20,20,0,0,0,3.31-.81,20.88,20.88,0,0,0,6-3.13,21.47,21.47,0,0,0,4.66-4.81,16,16,0,0,0,1.65-2.89,12.69,12.69,0,0,0,.94-3.17A39.2,39.2,0,0,1,38.15,34.45Z"/><path class="cls-3" d="M25.16,26.43c2.13-11-3.52-17.63-3.52-17.63S16,15.47,18.11,26.43c0,0,1.67-7.39,3.53-9.1C23.49,19,25.16,26.43,25.16,26.43Z"/><path class="cls-3" d="M43.48,19.44a21.65,21.65,0,0,0-1-4.49,21.31,21.31,0,0,0-4.65-7.87A22.17,22.17,0,0,0,17,.48a21,21,0,0,0-4.3,1.41A22,22,0,0,0,5.51,7.17,21.7,21.7,0,0,0,1,14.84a21.42,21.42,0,0,0-.95,4.34,11.82,11.82,0,0,0,.34,4.39C.66,22.1.79,20.7,1,19.3a21,21,0,0,1,1.08-4.07A20.28,20.28,0,0,1,13.47,3.6a19.71,19.71,0,0,1,4-1.15,20.13,20.13,0,0,1,4.11-.33A19.85,19.85,0,0,1,36,8.8a21.18,21.18,0,0,1,4.07,7A20.29,20.29,0,0,1,41,19.74c.08.67.14,1.29.16,2q0,.51,0,1.08l-.29,0c-.48.07-1,.12-1.43.17L38,23.29l-1.39.29c-.91.23-1.83.47-2.73.76l-.12.05a18.48,18.48,0,0,1-6.27-5c-.11,1.6-.07,3.15-.27,4.67a33,33,0,0,1-.75,3.6l-.14.07a12.32,12.32,0,0,1-2.31.7,9.45,9.45,0,0,1-1.19.16,8.09,8.09,0,0,1-1.08,0h-.2a11.5,11.5,0,0,1-4-.73l-.87-.32a26.89,26.89,0,0,1-.88-7.91,19.41,19.41,0,0,1-6.67,5.17l-.2,0a14.19,14.19,0,0,0-2.34-.18,9.87,9.87,0,0,0-2.31.28,15.28,15.28,0,0,1,4.37,1,25.06,25.06,0,0,1,4,1.9l.93.58,1,.62a15.73,15.73,0,0,0,2.14,1.15,16,16,0,0,0,2.32.84,10.63,10.63,0,0,0,2.43.36,9.44,9.44,0,0,0,1.58,0,10.7,10.7,0,0,0,1.52-.19,12.12,12.12,0,0,0,2.9-.93,12.94,12.94,0,0,0,1.33-.7l.59-.38.55-.33c.75-.44,1.53-.86,2.32-1.24s1.59-.74,2.41-1,1.66-.59,2.5-.82l1.27-.3c.43-.08.86-.16,1.29-.22s.86-.09,1.29-.12.87,0,1.29,0h0l1,0L43.46,24a15,15,0,0,0,.14-2.27A22.8,22.8,0,0,0,43.48,19.44Z"/><path class="cls-5" d="M70.17,19.63c0,4-3,6.47-7.77,6.47H58.79V31H54.65V13.14H62.4C67.18,13.14,70.17,15.62,70.17,19.63Zm-4.2,0c0-2-1.27-3.12-3.8-3.12H58.79v6.21h3.38C64.7,22.72,66,21.57,66,19.63Z"/><path class="cls-5" d="M84.6,23.18V31H80.87V29.32c-.74,1.25-2.17,1.91-4.19,1.91-3.22,0-5.14-1.79-5.14-4.16S73.25,23,77.45,23h3.16c0-1.71-1-2.71-3.16-2.71a6.65,6.65,0,0,0-4,1.28l-1.43-2.79A10.6,10.6,0,0,1,78,17.07C82.17,17.07,84.6,19,84.6,23.18Zm-4,3.5v-1.4H77.88c-1.87,0-2.45.69-2.45,1.61s.84,1.66,2.25,1.66A2.93,2.93,0,0,0,80.61,26.68Z"/><path class="cls-5" d="M96,17.07v3.68c-.33,0-.59-.05-.89-.05-2.2,0-3.66,1.2-3.66,3.84V31h-4V17.28h3.81v1.81A5.55,5.55,0,0,1,96,17.07Z"/><path class="cls-5" d="M122.38,13.14V31h-4.14V23.69h-8.13V31H106V13.14h4.14v7.05h8.13v-7Z"/><path class="cls-5" d="M138.23,23.18V31H134.5V29.32c-.74,1.25-2.17,1.91-4.19,1.91-3.22,0-5.14-1.79-5.14-4.16S126.89,23,131.08,23h3.17c0-1.71-1-2.71-3.17-2.71a6.6,6.6,0,0,0-4,1.28l-1.43-2.79a10.58,10.58,0,0,1,5.93-1.66C135.81,17.07,138.23,19,138.23,23.18Zm-4,3.5v-1.4h-2.74c-1.86,0-2.45.69-2.45,1.61s.84,1.66,2.25,1.66A2.93,2.93,0,0,0,134.25,26.68Z"/><path class="cls-5" d="M163,17.28l-5,13.75h-3.83l-3.09-8.54L147.93,31H144.1l-5-13.75h3.76l3.24,9.3,3.38-9.3h3.37l3.27,9.3,3.35-9.3Z"/><path class="cls-5" d="M176.73,23.18V31H173V29.32c-.74,1.25-2.17,1.91-4.19,1.91-3.22,0-5.13-1.79-5.13-4.16s1.71-4.12,5.9-4.12h3.17c0-1.71-1-2.71-3.17-2.71a6.62,6.62,0,0,0-4,1.28l-1.43-2.79a10.6,10.6,0,0,1,5.93-1.66C174.3,17.07,176.73,19,176.73,23.18Zm-4,3.5v-1.4H170c-1.86,0-2.45.69-2.45,1.61s.84,1.66,2.25,1.66A2.93,2.93,0,0,0,172.74,26.68Z"/><path class="cls-5" d="M179.26,13.14a2.28,2.28,0,0,1,2.47-2.23,2.24,2.24,0,0,1,2.48,2.15,2.49,2.49,0,0,1-5,.08Zm.48,4.14h4V31h-4Z"/><path class="cls-5" d="M186.44,13.14a2.28,2.28,0,0,1,2.48-2.23,2.23,2.23,0,0,1,2.47,2.15,2.49,2.49,0,0,1-4.95.08Zm.48,4.14h4V31h-4Z"/><path class="cls-5" d="M38.15,34.45a20.79,20.79,0,0,1-4.67,4.12,21,21,0,0,1-5.61,2.54,21.88,21.88,0,0,1-3,.62,20.79,20.79,0,0,1-3,.16c-.56,0-1,0-1.55-.09s-1-.11-1.51-.19a21.81,21.81,0,0,1-3-.73,21,21,0,0,1-5.49-2.66A19.46,19.46,0,0,1,5.87,34a18.36,18.36,0,0,1-2.24-3.89l.84.19c.83.23,1.64.5,2.46.79a50.15,50.15,0,0,1,4.77,2.07c.78.39,1.56.77,2.33,1.17l1.2.62c.43.21.87.4,1.31.58a18.08,18.08,0,0,0,2.74.83c.47.1.95.18,1.43.24a12.12,12.12,0,0,0,1.48.09h-.1a9,9,0,0,0,1.16,0c.37,0,.73-.06,1.1-.11a12.3,12.3,0,0,0,2.14-.5,11,11,0,0,0,2-.87c.33-.18.64-.38.95-.58l.8-.56c1.09-.72,2.17-1.46,3.28-2.17A20.81,20.81,0,0,1,37,30a5.16,5.16,0,0,0-1,0,8.8,8.8,0,0,0-1,.14,16.64,16.64,0,0,0-2,.53,29,29,0,0,0-3.77,1.56l-.92.47c-.27.13-.53.27-.8.38a12.81,12.81,0,0,1-1.69.55,13.08,13.08,0,0,1-1.77.3c-.3,0-.6.06-.89.07s-.62,0-.84,0h-.09a13.76,13.76,0,0,1-4.72-.9c-.38-.15-.76-.3-1.13-.47l-1.18-.56c-.81-.4-1.64-.75-2.47-1.1-1.67-.69-3.38-1.28-5.12-1.81-.87-.26-1.74-.49-2.63-.7l-1.35-.31c-.47-.09-.88-.18-1.43-.26L.7,27.67l.42,1.52h0a19.74,19.74,0,0,0,3.05,6.08A22.21,22.21,0,0,0,15.05,43.2a19.94,19.94,0,0,0,3.33.8c.57.09,1.13.16,1.7.2a16.77,16.77,0,0,0,1.7.06A21.52,21.52,0,0,0,25.2,44a20,20,0,0,0,3.31-.81,20.88,20.88,0,0,0,6-3.13,21.47,21.47,0,0,0,4.66-4.81,16,16,0,0,0,1.65-2.89,12.69,12.69,0,0,0,.94-3.17A39.2,39.2,0,0,1,38.15,34.45Z"/><path class="cls-5" d="M25.16,26.43c2.13-11-3.52-17.63-3.52-17.63S16,15.47,18.11,26.43c0,0,1.67-7.39,3.53-9.1C23.49,19,25.16,26.43,25.16,26.43Z"/><path class="cls-5" d="M43.48,19.44a21.65,21.65,0,0,0-1-4.49,21.31,21.31,0,0,0-4.65-7.87A22.17,22.17,0,0,0,17,.48a21,21,0,0,0-4.3,1.41A22,22,0,0,0,5.51,7.17,21.7,21.7,0,0,0,1,14.84a21.42,21.42,0,0,0-.95,4.34,11.82,11.82,0,0,0,.34,4.39C.66,22.1.79,20.7,1,19.3a21,21,0,0,1,1.08-4.07A20.28,20.28,0,0,1,13.47,3.6a19.71,19.71,0,0,1,4-1.15,20.13,20.13,0,0,1,4.11-.33A19.85,19.85,0,0,1,36,8.8a21.18,21.18,0,0,1,4.07,7A20.29,20.29,0,0,1,41,19.74c.08.67.14,1.29.16,2q0,.51,0,1.08l-.29,0c-.48.07-1,.12-1.43.17L38,23.29l-1.39.29c-.91.23-1.83.47-2.73.76l-.12.05a18.48,18.48,0,0,1-6.27-5c-.11,1.6-.07,3.15-.27,4.67a33,33,0,0,1-.75,3.6l-.14.07a12.32,12.32,0,0,1-2.31.7,9.45,9.45,0,0,1-1.19.16,8.09,8.09,0,0,1-1.08,0h-.2a11.5,11.5,0,0,1-4-.73l-.87-.32a26.89,26.89,0,0,1-.88-7.91,19.41,19.41,0,0,1-6.67,5.17l-.2,0a14.19,14.19,0,0,0-2.34-.18,9.87,9.87,0,0,0-2.31.28,15.28,15.28,0,0,1,4.37,1,25.06,25.06,0,0,1,4,1.9l.93.58,1,.62a15.73,15.73,0,0,0,2.14,1.15,16,16,0,0,0,2.32.84,10.63,10.63,0,0,0,2.43.36,9.44,9.44,0,0,0,1.58,0,10.7,10.7,0,0,0,1.52-.19,12.12,12.12,0,0,0,2.9-.93,12.94,12.94,0,0,0,1.33-.7l.59-.38.55-.33c.75-.44,1.53-.86,2.32-1.24s1.59-.74,2.41-1,1.66-.59,2.5-.82l1.27-.3c.43-.08.86-.16,1.29-.22s.86-.09,1.29-.12.87,0,1.29,0h0l1,0L43.46,24a15,15,0,0,0,.14-2.27A22.8,22.8,0,0,0,43.48,19.44Z"/></g><g id="Color"><path class="cls-5" d="M70.17,19.63c0,4-3,6.47-7.77,6.47H58.79V31H54.65V13.14H62.4C67.18,13.14,70.17,15.62,70.17,19.63Zm-4.2,0c0-2-1.27-3.12-3.8-3.12H58.79v6.21h3.38C64.7,22.72,66,21.57,66,19.63Z"/><path class="cls-5" d="M84.6,23.18V31H80.87V29.32c-.74,1.25-2.17,1.91-4.19,1.91-3.22,0-5.14-1.79-5.14-4.16S73.25,23,77.45,23h3.16c0-1.71-1-2.71-3.16-2.71a6.65,6.65,0,0,0-4,1.28l-1.43-2.79A10.6,10.6,0,0,1,78,17.07C82.17,17.07,84.6,19,84.6,23.18Zm-4,3.5v-1.4H77.88c-1.87,0-2.45.69-2.45,1.61s.84,1.66,2.25,1.66A2.93,2.93,0,0,0,80.61,26.68Z"/><path class="cls-5" d="M96,17.07v3.68c-.33,0-.59-.05-.89-.05-2.2,0-3.66,1.2-3.66,3.84V31h-4V17.28h3.81v1.81A5.55,5.55,0,0,1,96,17.07Z"/><path class="cls-5" d="M122.38,13.14V31h-4.14V23.69h-8.13V31H106V13.14h4.14v7.05h8.13v-7Z"/><path class="cls-5" d="M138.23,23.18V31H134.5V29.32c-.74,1.25-2.17,1.91-4.19,1.91-3.22,0-5.14-1.79-5.14-4.16S126.89,23,131.08,23h3.17c0-1.71-1-2.71-3.17-2.71a6.6,6.6,0,0,0-4,1.28l-1.43-2.79a10.58,10.58,0,0,1,5.93-1.66C135.81,17.07,138.23,19,138.23,23.18Zm-4,3.5v-1.4h-2.74c-1.86,0-2.45.69-2.45,1.61s.84,1.66,2.25,1.66A2.93,2.93,0,0,0,134.25,26.68Z"/><path class="cls-5" d="M163,17.28l-5,13.75h-3.83l-3.09-8.54L147.93,31H144.1l-5-13.75h3.76l3.24,9.3,3.38-9.3h3.37l3.27,9.3,3.35-9.3Z"/><path class="cls-5" d="M176.73,23.18V31H173V29.32c-.74,1.25-2.17,1.91-4.19,1.91-3.22,0-5.13-1.79-5.13-4.16s1.71-4.12,5.9-4.12h3.17c0-1.71-1-2.71-3.17-2.71a6.62,6.62,0,0,0-4,1.28l-1.43-2.79a10.6,10.6,0,0,1,5.93-1.66C174.3,17.07,176.73,19,176.73,23.18Zm-4,3.5v-1.4H170c-1.86,0-2.45.69-2.45,1.61s.84,1.66,2.25,1.66A2.93,2.93,0,0,0,172.74,26.68Z"/><path class="cls-5" d="M179.26,13.14a2.28,2.28,0,0,1,2.47-2.23,2.24,2.24,0,0,1,2.48,2.15,2.49,2.49,0,0,1-5,.08Zm.48,4.14h4V31h-4Z"/><path class="cls-5" d="M186.44,13.14a2.28,2.28,0,0,1,2.48-2.23,2.23,2.23,0,0,1,2.47,2.15,2.49,2.49,0,0,1-4.95.08Zm.48,4.14h4V31h-4Z"/><path class="cls-5" d="M38.15,34.45a20.79,20.79,0,0,1-4.67,4.12,21,21,0,0,1-5.61,2.54,21.88,21.88,0,0,1-3,.62,20.79,20.79,0,0,1-3,.16c-.56,0-1,0-1.55-.09s-1-.11-1.51-.19a21.81,21.81,0,0,1-3-.73,21,21,0,0,1-5.49-2.66A19.46,19.46,0,0,1,5.87,34a18.36,18.36,0,0,1-2.24-3.89l.84.19c.83.23,1.64.5,2.46.79a50.15,50.15,0,0,1,4.77,2.07c.78.39,1.56.77,2.33,1.17l1.2.62c.43.21.87.4,1.31.58a18.08,18.08,0,0,0,2.74.83c.47.1.95.18,1.43.24a12.12,12.12,0,0,0,1.48.09h-.1a9,9,0,0,0,1.16,0c.37,0,.73-.06,1.1-.11a12.3,12.3,0,0,0,2.14-.5,11,11,0,0,0,2-.87c.33-.18.64-.38.95-.58l.8-.56c1.09-.72,2.17-1.46,3.28-2.17A20.81,20.81,0,0,1,37,30a5.16,5.16,0,0,0-1,0,8.8,8.8,0,0,0-1,.14,16.64,16.64,0,0,0-2,.53,29,29,0,0,0-3.77,1.56l-.92.47c-.27.13-.53.27-.8.38a12.81,12.81,0,0,1-1.69.55,13.08,13.08,0,0,1-1.77.3c-.3,0-.6.06-.89.07s-.62,0-.84,0h-.09a13.76,13.76,0,0,1-4.72-.9c-.38-.15-.76-.3-1.13-.47l-1.18-.56c-.81-.4-1.64-.75-2.47-1.1-1.67-.69-3.38-1.28-5.12-1.81-.87-.26-1.74-.49-2.63-.7l-1.35-.31c-.47-.09-.88-.18-1.43-.26L.7,27.67l.42,1.52h0a19.74,19.74,0,0,0,3.05,6.08A22.21,22.21,0,0,0,15.05,43.2a19.94,19.94,0,0,0,3.33.8c.57.09,1.13.16,1.7.2a16.77,16.77,0,0,0,1.7.06A21.52,21.52,0,0,0,25.2,44a20,20,0,0,0,3.31-.81,20.88,20.88,0,0,0,6-3.13,21.47,21.47,0,0,0,4.66-4.81,16,16,0,0,0,1.65-2.89,12.69,12.69,0,0,0,.94-3.17A39.2,39.2,0,0,1,38.15,34.45Z"/><path class="cls-5" d="M25.16,26.43c2.13-11-3.52-17.63-3.52-17.63S16,15.47,18.11,26.43c0,0,1.67-7.39,3.53-9.1C23.49,19,25.16,26.43,25.16,26.43Z"/><path class="cls-5" d="M43.48,19.44a21.65,21.65,0,0,0-1-4.49,21.31,21.31,0,0,0-4.65-7.87A22.17,22.17,0,0,0,17,.48a21,21,0,0,0-4.3,1.41A22,22,0,0,0,5.51,7.17,21.7,21.7,0,0,0,1,14.84a21.42,21.42,0,0,0-.95,4.34,11.82,11.82,0,0,0,.34,4.39C.66,22.1.79,20.7,1,19.3a21,21,0,0,1,1.08-4.07A20.28,20.28,0,0,1,13.47,3.6a19.71,19.71,0,0,1,4-1.15,20.13,20.13,0,0,1,4.11-.33A19.85,19.85,0,0,1,36,8.8a21.18,21.18,0,0,1,4.07,7A20.29,20.29,0,0,1,41,19.74c.08.67.14,1.29.16,2q0,.51,0,1.08l-.29,0c-.48.07-1,.12-1.43.17L38,23.29l-1.39.29c-.91.23-1.83.47-2.73.76l-.12.05a18.48,18.48,0,0,1-6.27-5c-.11,1.6-.07,3.15-.27,4.67a33,33,0,0,1-.75,3.6l-.14.07a12.32,12.32,0,0,1-2.31.7,9.45,9.45,0,0,1-1.19.16,8.09,8.09,0,0,1-1.08,0h-.2a11.5,11.5,0,0,1-4-.73l-.87-.32a26.89,26.89,0,0,1-.88-7.91,19.41,19.41,0,0,1-6.67,5.17l-.2,0a14.19,14.19,0,0,0-2.34-.18,9.87,9.87,0,0,0-2.31.28,15.28,15.28,0,0,1,4.37,1,25.06,25.06,0,0,1,4,1.9l.93.58,1,.62a15.73,15.73,0,0,0,2.14,1.15,16,16,0,0,0,2.32.84,10.63,10.63,0,0,0,2.43.36,9.44,9.44,0,0,0,1.58,0,10.7,10.7,0,0,0,1.52-.19,12.12,12.12,0,0,0,2.9-.93,12.94,12.94,0,0,0,1.33-.7l.59-.38.55-.33c.75-.44,1.53-.86,2.32-1.24s1.59-.74,2.41-1,1.66-.59,2.5-.82l1.27-.3c.43-.08.86-.16,1.29-.22s.86-.09,1.29-.12.87,0,1.29,0h0l1,0L43.46,24a15,15,0,0,0,.14-2.27A22.8,22.8,0,0,0,43.48,19.44Z"/><path class="cls-1" d="M70.17,19.63c0,4-3,6.47-7.77,6.47H58.79V31H54.65V13.14H62.4C67.18,13.14,70.17,15.62,70.17,19.63Zm-4.2,0c0-2-1.27-3.12-3.8-3.12H58.79v6.21h3.38C64.7,22.72,66,21.57,66,19.63Z"/><path class="cls-1" d="M84.6,23.18V31H80.87V29.32c-.74,1.25-2.17,1.91-4.19,1.91-3.22,0-5.14-1.79-5.14-4.16S73.25,23,77.45,23h3.16c0-1.71-1-2.71-3.16-2.71a6.65,6.65,0,0,0-4,1.28l-1.43-2.79A10.6,10.6,0,0,1,78,17.07C82.17,17.07,84.6,19,84.6,23.18Zm-4,3.5v-1.4H77.88c-1.87,0-2.45.69-2.45,1.61s.84,1.66,2.25,1.66A2.93,2.93,0,0,0,80.61,26.68Z"/><path class="cls-1" d="M96,17.07v3.68c-.33,0-.59-.05-.89-.05-2.2,0-3.66,1.2-3.66,3.84V31h-4V17.28h3.81v1.81A5.55,5.55,0,0,1,96,17.07Z"/><path class="cls-1" d="M122.38,13.14V31h-4.14V23.69h-8.13V31H106V13.14h4.14v7.05h8.13v-7Z"/><path class="cls-1" d="M138.23,23.18V31H134.5V29.32c-.74,1.25-2.17,1.91-4.19,1.91-3.22,0-5.14-1.79-5.14-4.16S126.89,23,131.08,23h3.17c0-1.71-1-2.71-3.17-2.71a6.6,6.6,0,0,0-4,1.28l-1.43-2.79a10.58,10.58,0,0,1,5.93-1.66C135.81,17.07,138.23,19,138.23,23.18Zm-4,3.5v-1.4h-2.74c-1.86,0-2.45.69-2.45,1.61s.84,1.66,2.25,1.66A2.93,2.93,0,0,0,134.25,26.68Z"/><path class="cls-1" d="M163,17.28l-5,13.75h-3.83l-3.09-8.54L147.93,31H144.1l-5-13.75h3.76l3.24,9.3,3.38-9.3h3.37l3.27,9.3,3.35-9.3Z"/><path class="cls-1" d="M176.73,23.18V31H173V29.32c-.74,1.25-2.17,1.91-4.19,1.91-3.22,0-5.13-1.79-5.13-4.16s1.71-4.12,5.9-4.12h3.17c0-1.71-1-2.71-3.17-2.71a6.62,6.62,0,0,0-4,1.28l-1.43-2.79a10.6,10.6,0,0,1,5.93-1.66C174.3,17.07,176.73,19,176.73,23.18Zm-4,3.5v-1.4H170c-1.86,0-2.45.69-2.45,1.61s.84,1.66,2.25,1.66A2.93,2.93,0,0,0,172.74,26.68Z"/><path class="cls-1" d="M179.26,13.14a2.28,2.28,0,0,1,2.47-2.23,2.24,2.24,0,0,1,2.48,2.15,2.49,2.49,0,0,1-5,.08Zm.48,4.14h4V31h-4Z"/><path class="cls-1" d="M186.44,13.14a2.28,2.28,0,0,1,2.48-2.23,2.23,2.23,0,0,1,2.47,2.15,2.49,2.49,0,0,1-4.95.08Zm.48,4.14h4V31h-4Z"/><path class="cls-2" d="M38.15,34.45a20.79,20.79,0,0,1-4.67,4.12,21,21,0,0,1-5.61,2.54,21.88,21.88,0,0,1-3,.62,20.79,20.79,0,0,1-3,.16c-.56,0-1,0-1.55-.09s-1-.11-1.51-.19a21.81,21.81,0,0,1-3-.73,21,21,0,0,1-5.49-2.66A19.46,19.46,0,0,1,5.87,34a18.36,18.36,0,0,1-2.24-3.89l.84.19c.83.23,1.64.5,2.46.79a50.15,50.15,0,0,1,4.77,2.07c.78.39,1.56.77,2.33,1.17l1.2.62c.43.21.87.4,1.31.58a18.08,18.08,0,0,0,2.74.83c.47.1.95.18,1.43.24a12.12,12.12,0,0,0,1.48.09h-.1a9,9,0,0,0,1.16,0c.37,0,.73-.06,1.1-.11a12.3,12.3,0,0,0,2.14-.5,11,11,0,0,0,2-.87c.33-.18.64-.38.95-.58l.8-.56c1.09-.72,2.17-1.46,3.28-2.17A20.81,20.81,0,0,1,37,30a5.16,5.16,0,0,0-1,0,8.8,8.8,0,0,0-1,.14,16.64,16.64,0,0,0-2,.53,29,29,0,0,0-3.77,1.56l-.92.47c-.27.13-.53.27-.8.38a12.81,12.81,0,0,1-1.69.55,13.08,13.08,0,0,1-1.77.3c-.3,0-.6.06-.89.07s-.62,0-.84,0h-.09a13.76,13.76,0,0,1-4.72-.9c-.38-.15-.76-.3-1.13-.47l-1.18-.56c-.81-.4-1.64-.75-2.47-1.1-1.67-.69-3.38-1.28-5.12-1.81-.87-.26-1.74-.49-2.63-.7l-1.35-.31c-.47-.09-.88-.18-1.43-.26L.7,27.67l.42,1.52h0a19.74,19.74,0,0,0,3.05,6.08A22.21,22.21,0,0,0,15.05,43.2a19.94,19.94,0,0,0,3.33.8c.57.09,1.13.16,1.7.2a16.77,16.77,0,0,0,1.7.06A21.52,21.52,0,0,0,25.2,44a20,20,0,0,0,3.31-.81,20.88,20.88,0,0,0,6-3.13,21.47,21.47,0,0,0,4.66-4.81,16,16,0,0,0,1.65-2.89,12.69,12.69,0,0,0,.94-3.17A39.2,39.2,0,0,1,38.15,34.45Z"/><path class="cls-3" d="M25.16,26.43c2.13-11-3.52-17.63-3.52-17.63S16,15.47,18.11,26.43c0,0,1.67-7.39,3.53-9.1C23.49,19,25.16,26.43,25.16,26.43Z"/><path class="cls-3" d="M43.48,19.44a21.65,21.65,0,0,0-1-4.49,21.31,21.31,0,0,0-4.65-7.87A22.17,22.17,0,0,0,17,.48a21,21,0,0,0-4.3,1.41A22,22,0,0,0,5.51,7.17,21.7,21.7,0,0,0,1,14.84a21.42,21.42,0,0,0-.95,4.34,11.82,11.82,0,0,0,.34,4.39C.66,22.1.79,20.7,1,19.3a21,21,0,0,1,1.08-4.07A20.28,20.28,0,0,1,13.47,3.6a19.71,19.71,0,0,1,4-1.15,20.13,20.13,0,0,1,4.11-.33A19.85,19.85,0,0,1,36,8.8a21.18,21.18,0,0,1,4.07,7A20.29,20.29,0,0,1,41,19.74c.08.67.14,1.29.16,2q0,.51,0,1.08l-.29,0c-.48.07-1,.12-1.43.17L38,23.29l-1.39.29c-.91.23-1.83.47-2.73.76l-.12.05a18.48,18.48,0,0,1-6.27-5c-.11,1.6-.07,3.15-.27,4.67a33,33,0,0,1-.75,3.6l-.14.07a12.32,12.32,0,0,1-2.31.7,9.45,9.45,0,0,1-1.19.16,8.09,8.09,0,0,1-1.08,0h-.2a11.5,11.5,0,0,1-4-.73l-.87-.32a26.89,26.89,0,0,1-.88-7.91,19.41,19.41,0,0,1-6.67,5.17l-.2,0a14.19,14.19,0,0,0-2.34-.18,9.87,9.87,0,0,0-2.31.28,15.28,15.28,0,0,1,4.37,1,25.06,25.06,0,0,1,4,1.9l.93.58,1,.62a15.73,15.73,0,0,0,2.14,1.15,16,16,0,0,0,2.32.84,10.63,10.63,0,0,0,2.43.36,9.44,9.44,0,0,0,1.58,0,10.7,10.7,0,0,0,1.52-.19,12.12,12.12,0,0,0,2.9-.93,12.94,12.94,0,0,0,1.33-.7l.59-.38.55-.33c.75-.44,1.53-.86,2.32-1.24s1.59-.74,2.41-1,1.66-.59,2.5-.82l1.27-.3c.43-.08.86-.16,1.29-.22s.86-.09,1.29-.12.87,0,1.29,0h0l1,0L43.46,24a15,15,0,0,0,.14-2.27A22.8,22.8,0,0,0,43.48,19.44Z"/></g></g></svg>