<?xml version="1.0" encoding="UTF-8"?>
<svg width="30px" height="30px" viewBox="0 0 30 30" version="1.1" xmlns="http://www.w3.org/2000/svg" xmlns:xlink="http://www.w3.org/1999/xlink">
    <!-- Generator: sketchtool 48.2 (47327) - http://www.bohemiancoding.com/sketch -->
    <title>F412A296-3F87-4757-91F5-778060FA288B</title>
    <desc>Created with sketchtool.</desc>
    <defs></defs>
    <g id="T2-/-Sign-posts-/-#29-/-Desktop" stroke="none" stroke-width="1" fill="none" fill-rule="evenodd" transform="translate(-39.000000, -55.000000)">
        <path d="M54,55 C62.304878,55 69,61.695122 69,70 C69,78.304878 62.304878,85 54,85 C45.695122,85 39,78.304878 39,70 C39,61.695122 45.695122,55 54,55 Z M61.0467536,63 L46.9565476,63 C45.8773014,63 45,63.8646003 45,64.9282219 L45,74.0717781 C45,75.1353997 45.8773014,76 46.9565476,76 L61.0434431,76 C62.1226893,76 62.9999907,75.1353997 62.9999907,74.0717781 L62.9999907,64.9314845 C63.0033012,63.867863 62.1259999,63 61.0467536,63 Z M62,73.9767294 C62,74.5409627 61.5305077,75 60.9534234,75 L47.0465766,75 C46.4694923,75 46,74.5409627 46,73.9767294 L46,65.0232706 C46,64.4590373 46.4694923,64 47.0465766,64 L60.950163,64 C61.5272473,64 61.9967396,64.4590373 61.9967396,65.0232706 L61.9967396,72.9767294 L62,73.9767294 Z M56.3742846,69.3923924 L60.8233954,65.8011688 C61.0304183,65.6317714 61.0492385,65.343796 60.8610359,65.1540709 C60.6728332,64.9677339 60.3528887,64.9507941 60.1421017,65.1201915 L54.0066952,70.0767576 L52.8097263,69.1145807 C52.7758499,69.0807013 52.7495015,69.0603736 52.7193891,69.0400459 L47.8487044,65.1168035 C47.6379174,64.9474062 47.3179729,64.9643459 47.1297702,65.1540709 C46.9415676,65.343796 46.9603879,65.6317714 47.1711748,65.8011688 L51.6729823,69.4228839 L47.1899951,73.2004446 C46.9867362,73.3732298 46.9754441,73.6612053 47.1674108,73.8475424 C47.2690402,73.9424049 47.4045461,73.9932241 47.540052,73.9932241 C47.6642658,73.9932241 47.7884795,73.9525687 47.8863449,73.871258 L52.4370851,70.0394902 L53.6716945,71.0321586 C53.7695599,71.1100814 53.8900096,71.1473488 54.0104593,71.1473488 C54.130909,71.1473488 54.2551227,71.1066934 54.3492241,71.0287707 L55.6177099,70.0056107 L60.1421017,73.874646 C60.2399671,73.9593446 60.3679449,74 60.4921587,74 C60.6276646,74 60.7594064,73.9525687 60.8610359,73.8577062 C61.0530026,73.6747571 61.0454745,73.3833937 60.8422156,73.2106084 L56.3742846,69.3923924 Z" id="Combined-Shape-Copy" fill="#2FDF95" fill-rule="nonzero"></path>
    </g>
</svg>