<?xml version="1.0" encoding="UTF-8"?>
<svg width="30px" height="30px" viewBox="0 0 30 30" version="1.1" xmlns="http://www.w3.org/2000/svg" xmlns:xlink="http://www.w3.org/1999/xlink">
    <!-- Generator: sketchtool 48.2 (47327) - http://www.bohemiancoding.com/sketch -->
    <title>164DC54C-EA2B-4A08-8E76-4123D500028B</title>
    <desc>Created with sketchtool.</desc>
    <defs></defs>
    <g id="Sign-posts-/-#14-—-2-columns-/-Desktop-" stroke="none" stroke-width="1" fill="none" fill-rule="evenodd" transform="translate(-20.000000, -20.000000)">
        <path d="M35,20 C43.304878,20 50,26.695122 50,35 C50,43.304878 43.304878,50 35,50 C26.695122,50 20,43.304878 20,35 C20,26.695122 26.695122,20 35,20 Z M38.5765333,30.2778667 C39.1717333,30.2778667 39.6538667,29.7989333 39.6538667,29.2026667 L39.6538667,28.0773333 C39.6538667,27.4805333 39.1722667,27 38.5765333,27 C37.9808,27 37.4997333,27.48 37.4997333,28.0773333 L37.4997333,29.2032 C37.5002667,29.7989333 37.9813333,30.2778667 38.5765333,30.2778667 Z M42.4037333,28.8634667 L40.2352,28.8634667 L40.2352,29.4112 C40.2352,30.3152 39.5008,31.0517333 38.5952,31.0517333 C37.6885333,31.0517333 36.9557333,30.3152 36.9557333,29.4112 L36.9557333,28.8634667 L32.5797333,28.8634667 L32.5797333,29.4112 C32.5797333,30.3152 31.8442667,31.0517333 30.9392,31.0517333 C30.0341333,31.0517333 29.2992,30.3157333 29.2992,29.4112 L29.2992,28.8634667 L27.1109333,28.8362667 L27.1109333,42.5312 L28.2053333,42.5312 L41.3274667,42.5312 L42.4202667,42.528 L42.4037333,28.8634667 Z M41.3264,41.4405333 L28.2053333,41.4405333 L28.2053333,32.6917333 L41.3274667,32.6917333 L41.3274667,41.4405333 L41.3264,41.4405333 Z M30.9221333,30.2778667 C31.5173333,30.2778667 32,29.7989333 32,29.2026667 L32,28.0773333 C32,27.48 31.5173333,27 30.9221333,27 C30.3269333,27 29.8458667,27.48 29.8458667,28.0773333 L29.8458667,29.2032 C29.8458667,29.7989333 30.3264,30.2778667 30.9221333,30.2778667 Z M32.5829333,33.8656 L32.5829333,35.3866667 L34.3061333,35.3866667 L34.3061333,33.8656 L32.5829333,33.8656 Z M35.3690667,33.8656 L35.3690667,35.3866667 L37.0938667,35.3866667 L37.0938667,33.8656 L35.3690667,33.8656 Z M37.9530667,33.8656 L37.9530667,35.3866667 L39.6762667,35.3866667 L39.6762667,33.8656 L37.9530667,33.8656 Z M32.5829333,36.3914667 L32.5829333,37.9114667 L34.3061333,37.9114667 L34.3061333,36.3914667 L32.5829333,36.3914667 Z M35.3690667,36.3914667 L35.3690667,37.9114667 L37.0938667,37.9114667 L37.0938667,36.3914667 L35.3690667,36.3914667 Z M37.9530667,36.3914667 L37.9530667,37.9114667 L39.6762667,37.9114667 L39.6762667,36.3914667 L37.9530667,36.3914667 Z M32.5829333,38.9674667 L32.5829333,40.4874667 L34.3061333,40.4874667 L34.3061333,38.9674667 L32.5829333,38.9674667 Z M29.8458667,36.3914667 L29.8458667,37.9114667 L31.568,37.9114667 L31.568,36.3914667 L29.8458667,36.3914667 Z M29.8458667,38.9674667 L29.8458667,40.4874667 L31.568,40.4874667 L31.568,38.9674667 L29.8458667,38.9674667 Z M35.3690667,38.9674667 L35.3690667,40.4874667 L37.0938667,40.4874667 L37.0938667,38.9674667 L35.3690667,38.9674667 Z M37.9530667,38.9674667 L37.9530667,40.4874667 L39.6762667,40.4874667 L39.6762667,38.9674667 L37.9530667,38.9674667 Z" id="Combined-Shape" fill="#FFFFFF" fill-rule="nonzero"></path>
    </g>
</svg>