<?xml version="1.0" encoding="UTF-8"?>
<svg width="30px" height="30px" viewBox="0 0 30 30" version="1.1" xmlns="http://www.w3.org/2000/svg" xmlns:xlink="http://www.w3.org/1999/xlink">
    <!-- Generator: sketchtool 48.2 (47327) - http://www.bohemiancoding.com/sketch -->
    <title>0B3A5774-3FD4-4196-B134-B7933612C600</title>
    <desc>Created with sketchtool.</desc>
    <defs></defs>
    <g id="T1-/-Sign-posts-/-#19-/-Desktop-/-2-columns" stroke="none" stroke-width="1" fill="none" fill-rule="evenodd" transform="translate(-20.000000, -20.000000)">
        <path d="M35,20 C43.304878,20 50,26.695122 50,35 C50,43.304878 43.304878,50 35,50 C26.695122,50 20,43.304878 20,35 C20,26.695122 26.695122,20 35,20 Z M42.0467536,28 L27.9565476,28 C26.8773014,28 26,28.8646003 26,29.9282219 L26,39.0717781 C26,40.1353997 26.8773014,41 27.9565476,41 L42.0434431,41 C43.1226893,41 43.9999907,40.1353997 43.9999907,39.0717781 L43.9999907,29.9314845 C44.0033012,28.867863 43.1259999,28 42.0467536,28 Z M43,38.9767294 C43,39.5409627 42.5305077,40 41.9534234,40 L28.0465766,40 C27.4694923,40 27,39.5409627 27,38.9767294 L27,30.0232706 C27,29.4590373 27.4694923,29 28.0465766,29 L41.950163,29 C42.5272473,29 42.9967396,29.4590373 42.9967396,30.0232706 L42.9967396,37.9767294 L43,38.9767294 Z M37.3742846,34.3923924 L41.8233954,30.8011688 C42.0304183,30.6317714 42.0492385,30.343796 41.8610359,30.1540709 C41.6728332,29.9677339 41.3528887,29.9507941 41.1421017,30.1201915 L35.0066952,35.0767576 L33.8097263,34.1145807 C33.7758499,34.0807013 33.7495015,34.0603736 33.7193891,34.0400459 L28.8487044,30.1168035 C28.6379174,29.9474062 28.3179729,29.9643459 28.1297702,30.1540709 C27.9415676,30.343796 27.9603879,30.6317714 28.1711748,30.8011688 L32.6729823,34.4228839 L28.1899951,38.2004446 C27.9867362,38.3732298 27.9754441,38.6612053 28.1674108,38.8475424 C28.2690402,38.9424049 28.4045461,38.9932241 28.540052,38.9932241 C28.6642658,38.9932241 28.7884795,38.9525687 28.8863449,38.871258 L33.4370851,35.0394902 L34.6716945,36.0321586 C34.7695599,36.1100814 34.8900096,36.1473488 35.0104593,36.1473488 C35.130909,36.1473488 35.2551227,36.1066934 35.3492241,36.0287707 L36.6177099,35.0056107 L41.1421017,38.874646 C41.2399671,38.9593446 41.3679449,39 41.4921587,39 C41.6276646,39 41.7594064,38.9525687 41.8610359,38.8577062 C42.0530026,38.6747571 42.0454745,38.3833937 41.8422156,38.2106084 L37.3742846,34.3923924 Z" id="Combined-Shape-Copy" fill="#FFFFFF" fill-rule="nonzero"></path>
    </g>
</svg>