<?xml version="1.0" encoding="UTF-8"?>
<svg width="30px" height="30px" viewBox="0 0 30 30" version="1.1" xmlns="http://www.w3.org/2000/svg" xmlns:xlink="http://www.w3.org/1999/xlink">
    <!-- Generator: sketchtool 48.2 (47327) - http://www.bohemiancoding.com/sketch -->
    <title>F4CEDBC0-1F5B-40EC-9D50-E6C530952AA4</title>
    <desc>Created with sketchtool.</desc>
    <defs></defs>
    <g id="T1-/-Sign-posts-/-#34-/-Desktop" stroke="none" stroke-width="1" fill="none" fill-rule="evenodd" transform="translate(-560.000000, -519.000000)">
        <g id="Icons/Call/Blue" transform="translate(560.000000, 519.000000)">
            <g id="phone-call">
                <path d="M15,0 C6.69512195,0 0,6.69512195 0,15 C0,23.304878 6.69512195,30 15,30 C23.304878,30 30,23.304878 30,15 C30,6.69512195 23.304878,0 15,0 Z" id="Shape-Copy" fill="#3FA2F7"></path>
                <path d="M18.643984,21 C18.1447355,21 17.5417628,20.8748733 16.8790578,20.6250234 C15.4249008,20.0764839 13.8436109,18.9931284 12.4253739,17.5747562 C11.0071369,16.1563839 9.92388472,14.5745396 9.3753975,13.1198403 C8.87614901,11.7979367 8.87493822,10.7129667 9.37136153,10.2164961 C9.44320166,10.1446491 9.51625257,10.0679585 9.59132146,9.98924975 C10.04456,9.51296084 10.5688314,8.97168674 11.2351687,9.00115207 C11.7033403,9.02052654 12.1565788,9.3111435 12.6215216,9.88834108 C13.9921343,11.5936976 13.3742285,12.2015714 12.6590561,12.9063175 L12.5323269,13.0314443 C12.415284,13.1484983 12.1937097,13.6901761 14.2516466,15.7479056 C14.9240379,16.4199574 15.4963373,16.9115844 15.9536118,17.2090632 C16.242183,17.3963496 16.7571718,17.6788939 16.9682526,17.467793 L17.0953854,17.3394371 C17.7992571,16.6250038 18.407073,16.0090573 20.1118633,17.379397 C20.6894094,17.8435769 20.9795951,18.2968586 20.9989677,18.7654784 C21.0268158,19.444392 20.485997,19.9578153 20.0089463,20.4106934 C19.9306486,20.4853658 19.8539653,20.5576164 19.7829324,20.6286561 C19.5351243,20.8760842 19.1412145,21 18.643984,21 Z M11.1871408,9.40317221 C10.7052469,9.40317221 10.2693631,9.8617012 9.88392869,10.2669504 C9.80603463,10.3484846 9.73056214,10.4280006 9.65670404,10.5018658 C9.28700993,10.8711915 9.32494797,11.8431438 9.75275993,12.9777609 C10.2814709,14.3795841 11.3320318,15.910974 12.7107164,17.2897901 C14.089401,18.6686061 15.6202413,19.7188635 17.0215273,20.247625 C18.1560362,20.6758814 19.1278958,20.7130157 19.4975899,20.3428828 C19.571448,20.2694212 19.6501492,20.1943452 19.7308685,20.1176546 C20.1457654,19.7233035 20.6159549,19.2768836 20.5957751,18.7812202 C20.5816493,18.4409562 20.3338412,18.0748595 19.8588085,17.6934248 C18.4381499,16.5519459 18.0414148,16.9555806 17.3827459,17.6223851 L17.2535951,17.7527591 C16.9400008,18.0679977 16.4286445,17.9989762 15.7336518,17.5469054 C15.2533724,17.2344921 14.6584716,16.7247015 13.9663041,16.0328717 C12.2586887,14.3250934 11.7122194,13.2804869 12.2469844,12.7452673 L12.3757316,12.6177187 C13.044894,11.958987 13.4484902,11.5614068 12.3067166,10.1406128 C11.9249146,9.66634201 11.5588529,9.41851033 11.2186213,9.40397948 C11.2081278,9.40357584 11.1972307,9.40317221 11.1871408,9.40317221 Z" id="Shape" stroke="#FFFFFF" stroke-width="0.6" fill="#FFFFFF" fill-rule="nonzero"></path>
                <g id="Group" transform="translate(15.000000, 9.000000)" fill="#FFFFFF" fill-rule="nonzero" stroke="#FFFFFF" stroke-width="0.6">
                    <path d="M3.66798811,5 C3.64325469,5 3.61852126,4.99517785 3.59418043,4.9851317 C3.49367634,4.94333971 3.44499467,4.82640253 3.48621705,4.7239318 C3.73590689,4.09383728 3.59300264,3.37573849 3.12346011,2.89472884 C2.64096198,2.40086011 1.89935175,2.26383063 1.27709012,2.54994497 C1.17933419,2.59535357 1.06194856,2.55115051 1.01758542,2.44988532 C0.972829698,2.34862013 1.01640764,2.22967372 1.11534135,2.18426512 C1.88521836,1.82742588 2.80349593,1.99901412 3.40102413,2.61102556 C3.98245598,3.20615948 4.15873073,4.09464098 3.84975918,4.8750259 C3.81913684,4.95218033 3.74532915,5 3.66798811,5 Z" id="Shape"></path>
                    <path d="M5.50089718,6 C5.47473247,6 5.44856776,5.99489092 5.42281836,5.984247 C5.31608295,5.93996828 5.26499947,5.81607304 5.30860732,5.70750504 C5.87550939,4.27398169 5.55281129,2.64120413 4.48587253,1.54743475 C3.39027719,0.424288152 1.70535289,0.109228075 0.293289146,0.76361637 C0.188630304,0.810449625 0.0656976956,0.764467884 0.0183520288,0.657177155 C-0.0285783251,0.549460669 0.0175214031,0.423436638 0.122180245,0.374900356 C1.69081694,-0.351440848 3.56221672,-0.00189446577 4.77949873,1.24599889 C5.96480165,2.46110897 6.32363197,4.2748332 5.69318704,5.86716386 C5.66079263,5.94976069 5.58271381,6 5.50089718,6 Z" id="Shape"></path>
                </g>
            </g>
        </g>
    </g>
</svg>