<?xml version="1.0" encoding="UTF-8"?>
<svg width="30px" height="30px" viewBox="0 0 30 30" version="1.1" xmlns="http://www.w3.org/2000/svg" xmlns:xlink="http://www.w3.org/1999/xlink">
    <!-- Generator: sketchtool 48.2 (47327) - http://www.bohemiancoding.com/sketch -->
    <title>37740E60-9ECB-44E8-8637-2D1036AF45C2</title>
    <desc>Created with sketchtool.</desc>
    <defs></defs>
    <g id="T1-/-Sign-posts-/-#34-/-Desktop" stroke="none" stroke-width="1" fill="none" fill-rule="evenodd" transform="translate(-560.000000, -559.000000)">
        <g id="Icons/Social/Mail//Blue-2" transform="translate(560.000000, 559.000000)" fill="#3FA2F7" fill-rule="nonzero">
            <path d="M15,0 C23.304878,0 30,6.69512195 30,15 C30,23.304878 23.304878,30 15,30 C6.69512195,30 0,23.304878 0,15 C0,6.69512195 6.69512195,0 15,0 Z M22.0467536,8 L7.95654759,8 C6.87730137,8 6,8.86460033 6,9.92822186 L6,19.0717781 C6,20.1353997 6.87730137,21 7.95654759,21 L22.0434431,21 C23.1226893,21 23.9999907,20.1353997 23.9999907,19.0717781 L23.9999907,9.9314845 C24.0033012,8.86786297 23.1259999,8 22.0467536,8 Z M23,18.9767294 C23,19.5409627 22.5305077,20 21.9534234,20 L8.04657662,20 C7.46949231,20 7,19.5409627 7,18.9767294 L7,10.0232706 C7,9.4590373 7.46949231,9 8.04657662,9 L21.950163,9 C22.5272473,9 22.9967396,9.4590373 22.9967396,10.0232706 L22.9967396,17.9767294 L23,18.9767294 Z M17.3742846,14.3923924 L21.8233954,10.8011688 C22.0304183,10.6317714 22.0492385,10.343796 21.8610359,10.1540709 C21.6728332,9.96773387 21.3528887,9.95079414 21.1421017,10.1201915 L15.0066952,15.0767576 L13.8097263,14.1145807 C13.7758499,14.0807013 13.7495015,14.0603736 13.7193891,14.0400459 L8.84870439,10.1168035 C8.63791741,9.94740619 8.3179729,9.96434593 8.12977025,10.1540709 C7.9415676,10.343796 7.96038786,10.6317714 8.17117483,10.8011688 L12.6729823,14.4228839 L8.1899951,18.2004446 C7.98673623,18.3732298 7.97544407,18.6612053 8.16741078,18.8475424 C8.26904021,18.9424049 8.40454612,18.9932241 8.54005203,18.9932241 C8.66426579,18.9932241 8.78847954,18.9525687 8.88634492,18.871258 L13.4370851,15.0394902 L14.6716945,16.0321586 C14.7695599,16.1100814 14.8900096,16.1473488 15.0104593,16.1473488 C15.130909,16.1473488 15.2551227,16.1066934 15.3492241,16.0287707 L16.6177099,15.0056107 L21.1421017,18.874646 C21.2399671,18.9593446 21.3679449,19 21.4921587,19 C21.6276646,19 21.7594064,18.9525687 21.8610359,18.8577062 C22.0530026,18.6747571 22.0454745,18.3833937 21.8422156,18.2106084 L17.3742846,14.3923924 Z" id="Combined-Shape-Copy"></path>
        </g>
    </g>
</svg>