<svg xmlns="http://www.w3.org/2000/svg" width="30" height="30" viewBox="0 0 30 30">
    <path fill="#2FDF95" fill-rule="nonzero" d="M15 0c8.305 0 15 6.695 15 15s-6.695 15-15 15S0 23.305 0 15 6.695 0 15 0zm7.047 8H7.957C6.877 8 6 8.865 6 9.928v9.144C6 20.135 6.877 21 7.957 21h14.086c1.08 0 1.957-.865 1.957-1.928v-9.14C24.003 8.867 23.126 8 22.047 8zM23 18.977C23 19.54 22.53 20 21.953 20H8.047A1.036 1.036 0 0 1 7 18.977v-8.954C7 9.46 7.47 9 8.047 9H21.95c.577 0 1.047.459 1.047 1.023v7.954l.003 1zm-5.626-4.585l4.45-3.59a.428.428 0 0 0 .037-.648.551.551 0 0 0-.719-.034l-6.135 4.957-1.197-.962a.566.566 0 0 0-.09-.075l-4.871-3.923a.548.548 0 0 0-.72.037.426.426 0 0 0 .042.647l4.502 3.622L8.19 18.2a.428.428 0 0 0-.023.648.549.549 0 0 0 .72.023l4.55-3.832 1.235.993a.542.542 0 0 0 .338.115c.12 0 .245-.04.34-.118l1.268-1.023 4.524 3.869a.537.537 0 0 0 .35.125.536.536 0 0 0 .369-.142.427.427 0 0 0-.019-.647l-4.468-3.819z"/>
</svg>
