<svg xmlns="http://www.w3.org/2000/svg" width="30" height="30" viewBox="0 0 30 30">
    <g fill="none" fill-rule="evenodd">
        <path fill="#2FDF95" d="M15 0C6.695 0 0 6.695 0 15s6.695 15 15 15 15-6.695 15-15S23.305 0 15 0z"/>
        <path fill="#FFF" fill-rule="nonzero" stroke="#FFF" stroke-width=".6" d="M18.644 21c-.5 0-1.102-.125-1.765-.375-1.454-.549-3.035-1.632-4.454-3.05-1.418-1.419-2.501-3-3.05-4.455-.499-1.322-.5-2.407-.004-2.904.072-.071.145-.148.22-.227.454-.476.978-1.017 1.644-.988.468.02.922.31 1.387.887 1.37 1.706.752 2.314.037 3.018l-.127.125c-.117.117-.338.66 1.72 2.717.672.672 1.244 1.164 1.702 1.461.288.187.803.47 1.014.259l.127-.129c.704-.714 1.312-1.33 3.017.04.577.465.868.918.887 1.386.028.68-.513 1.193-.99 1.646-.078.074-.155.147-.226.218-.248.247-.642.371-1.139.371zM11.187 9.403c-.482 0-.918.459-1.303.864-.078.081-.153.161-.227.235-.37.37-.332 1.341.096 2.476.528 1.402 1.579 2.933 2.958 4.312 1.378 1.379 2.91 2.429 4.31 2.958 1.135.428 2.107.465 2.477.095.073-.074.152-.149.233-.225.415-.395.885-.841.865-1.337-.014-.34-.262-.706-.737-1.088-1.42-1.141-1.818-.737-2.476-.07l-.13.13c-.313.315-.824.246-1.52-.206-.48-.313-1.075-.822-1.767-1.514-1.707-1.708-2.254-2.753-1.719-3.288l.129-.127c.669-.659 1.072-1.057-.07-2.477-.381-.475-.747-.722-1.087-.737a.84.84 0 0 0-.032 0z"/>
        <g fill="#FFF" fill-rule="nonzero" stroke="#FFF" stroke-width=".6">
            <path d="M18.668 14a.192.192 0 0 1-.074-.015.202.202 0 0 1-.108-.261c.25-.63.107-1.348-.363-1.83a1.633 1.633 0 0 0-1.846-.344.194.194 0 0 1-.26-.1.202.202 0 0 1 .098-.266 2.016 2.016 0 0 1 2.286.427c.581.595.758 1.484.449 2.264a.197.197 0 0 1-.182.125z"/>
            <path d="M20.5 15a.203.203 0 0 1-.077-.016.213.213 0 0 1-.114-.276 3.905 3.905 0 0 0-.823-4.16 3.697 3.697 0 0 0-4.193-.784.207.207 0 0 1-.275-.107.216.216 0 0 1 .104-.282 4.108 4.108 0 0 1 4.657.871 4.336 4.336 0 0 1 .914 4.621.208.208 0 0 1-.192.133z"/>
        </g>
    </g>
</svg>
