<svg xmlns="http://www.w3.org/2000/svg" width="140" height="68" viewBox="0 0 140 68">
    <g fill="none" fill-rule="evenodd">
        <path fill="#FFF" d="M70 68H0V0h70z"/>
        <path fill="#092546" d="M24.175 32.423l8.49-9.12a.931.931 0 0 1 1.339 0l1.34 1.372c.369.38.369.993 0 1.372l-6.482 7.062a.987.987 0 0 0 0 1.371l6.481 7.112c.37.378.37.993 0 1.371l-1.34 1.372a.931.931 0 0 1-1.339 0l-8.489-9.168a1.972 1.972 0 0 1 0-2.744z"/>
        <g>
            <path fill="#FFF" d="M70 0h70v68H70z"/>
            <path fill="#092546" d="M116.445 35.216l-8.49 9.12a.931.931 0 0 1-1.338 0l-1.34-1.373a.987.987 0 0 1 0-1.371l6.481-7.062a.987.987 0 0 0 0-1.372l-6.48-7.111a.987.987 0 0 1 0-1.372l1.339-1.372a.931.931 0 0 1 1.339 0l8.489 9.169c.74.758.74 1.986 0 2.744z"/>
        </g>
    </g>
</svg>
