<svg xmlns="http://www.w3.org/2000/svg" xmlns:xlink="http://www.w3.org/1999/xlink" viewBox="0 0 65.44 65.3"><defs><style>.cls-1,.cls-10,.cls-8{fill:none;}.cls-2{fill:#231f20;}.cls-3,.cls-9{fill:#fff;}.cls-4{clip-path:url(#clip-path);}.cls-5{clip-path:url(#clip-path-2);}.cls-6{fill:#34398f;}.cls-7{fill:#e3272d;stroke-width:0.81px;}.cls-10,.cls-7,.cls-8,.cls-9{stroke:#231f20;}.cls-7,.cls-8,.cls-9{stroke-miterlimit:10;}.cls-8{stroke-width:0.93px;}.cls-9{stroke-width:0.63px;}.cls-10{stroke-miterlimit:20;stroke-width:0.92px;}</style><clipPath id="clip-path"><path class="cls-1" d="M32.55,4.9c7.22,0,11.88-1.49,16.09-4.31L57.45,9c-6,5.79-6.81,15.83,2.47,25C63.35,43,50.85,54.24,34.53,54.79a13.29,13.29,0,0,1-2,2.5,12.92,12.92,0,0,1-2-2.5C14.25,54.24,1.76,43,5.18,33.93c9.28-9.15,8.49-19.19,2.47-25L16.46.59C20.67,3.41,25.34,4.9,32.55,4.9Z"/></clipPath><clipPath id="clip-path-2"><path class="cls-1" d="M32.54,4.9c7.21,0,11.88-1.49,16.08-4.31L57.44,9c-6,5.79-6.81,15.83,2.47,25,3.42,9.07-9.07,20.31-25.4,20.86a12.92,12.92,0,0,1-2,2.5,12.52,12.52,0,0,1-2-2.5C14.23,54.24,1.74,43,5.16,33.93c9.28-9.15,8.5-19.19,2.47-25L16.45.59C20.66,3.41,25.32,4.9,32.54,4.9Z"/></clipPath></defs><g id="Layer_2" data-name="Layer 2"><g id="Inverse"><path class="cls-2" d="M1.4,59.92c0,.66-.15,1.83-.15,2.32s.19.85.67.85c.75,0,.77-.59.83-1.27s.08-1.26.09-1.9H4.11c0,.25-.14,1.89-.17,2.8,0,.61-.57,1.24-2,1.24S0,63.33,0,62.78c0-.89.12-1.8.15-2.86Z"/><path class="cls-2" d="M4.61,63.89l0-1h1.1l-.06,1Z"/><path class="cls-2" d="M9.06,60.9a2.35,2.35,0,0,0-.86-.2c-.19,0-.54.07-.54.32,0,.47,1.41.91,1.41,1.79,0,.4-.29,1.15-1.56,1.15a6.66,6.66,0,0,1-1.18-.13l-.09-1a2.61,2.61,0,0,0,1,.26c.2,0,.56,0,.56-.31,0-.46-1.41-.93-1.41-1.86,0-.27.16-1.09,1.51-1.09A5.3,5.3,0,0,1,9,60Z"/><path class="cls-2" d="M9.65,63.89l0-1h1.1l0,1Z"/><path class="cls-2" d="M17.56,61.82A2.13,2.13,0,0,1,15.14,64c-1.22,0-2.33-.58-2.33-1.94a2.18,2.18,0,0,1,2.46-2.17A2,2,0,0,1,17.56,61.82Zm-3.5.16a1.06,1.06,0,0,0,1.11,1.11,1.15,1.15,0,0,0,1.14-1.25,1.05,1.05,0,0,0-1.08-1.12A1.17,1.17,0,0,0,14.06,62Z"/><path class="cls-2" d="M18,63.89a28.08,28.08,0,0,0,.15-3h1.19a29.48,29.48,0,0,0-.11,3Zm.18-3.33v-.71h1.16l0,.71Z"/><path class="cls-2" d="M21.2,59.92c-.06.67-.19,2.93-.21,4H19.81c.11-1.32.18-2.64.21-4Z"/><path class="cls-2" d="M27.05,61.79a2.55,2.55,0,0,1-.36,1.34l.65.76H26.05l-.23-.29a2,2,0,0,1-1.15.36c-1,0-1.55-.51-1.55-1.24s.48-1,1-1.32a1.07,1.07,0,0,1-.2-.59c0-.46.36-1,1.27-1a4.58,4.58,0,0,1,1,.11l0,.89a1.82,1.82,0,0,0-.61-.15c-.21,0-.45.09-.45.34s.61,1,.83,1.26a1.78,1.78,0,0,0,.06-.51Zm-2.4.36c-.2.13-.4.28-.4.54s.26.44.54.44a.7.7,0,0,0,.5-.2Z"/><path class="cls-2" d="M30.59,60.76c-.06,1-.09,2.08-.1,3.13H29.26a38.27,38.27,0,0,0,.19-4h2.09c.29,0,1.43,0,1.43,1.06A1.18,1.18,0,0,1,32,62.14c.24.59.53,1.16.78,1.75H31.5c-.22-.76-.5-1.49-.77-2.22l.29,0c.35,0,.76-.13.76-.54s-.4-.4-.67-.4Z"/><path class="cls-2" d="M34.44,62.58c0,.47.39.63.78.63a4.06,4.06,0,0,0,1-.19l-.14.83a5.15,5.15,0,0,1-1,.11c-1,0-1.77-.28-1.77-1.46A1.58,1.58,0,0,1,35,60.85c1,0,1.51.46,1.51,1.29a2.25,2.25,0,0,1,0,.44Zm1-.54c0-.34-.15-.52-.43-.52a.55.55,0,0,0-.53.52Z"/><path class="cls-2" d="M36.82,61.7l0-.78h.41v-.34c0-.51.25-.83,1-.83a2.92,2.92,0,0,1,.83.12l0,.76a1.55,1.55,0,0,0-.52-.1c-.24,0-.33.1-.33.39H39l0,.78H38.3c0,.76-.08,1.48-.1,2.19H37c.06-.71.09-1.43.13-2.19Z"/><path class="cls-2" d="M39.22,63.89a28.08,28.08,0,0,0,.15-3h1.19a29.48,29.48,0,0,0-.11,3Zm.18-3.33v-.71h1.16l0,.71Z"/><path class="cls-2" d="M42.38,61.31h0a1.31,1.31,0,0,1,1.11-.47c.58,0,1.09.22,1.09.95,0,.16-.08,1.35-.08,2.09H43.34c0-.52.08-1,.08-1.55,0-.29-.08-.56-.43-.56a.63.63,0,0,0-.59.49,8.64,8.64,0,0,0-.15,1.62H41.07a29.23,29.23,0,0,0,.18-3h1.16Z"/><path class="cls-2" d="M45.11,63.89c.1-.9.14-1.78.16-3h1.19a26.81,26.81,0,0,0-.11,3Zm.19-3.33v-.71h1.15l0,.71Z"/><path class="cls-2" d="M48.27,61.31h0a1.31,1.31,0,0,1,1.11-.47c.58,0,1.09.22,1.09.95,0,.16-.08,1.35-.08,2.09H49.22c0-.52.09-1,.09-1.55,0-.29-.09-.56-.43-.56a.62.62,0,0,0-.59.49,8.64,8.64,0,0,0-.15,1.62H47a29.23,29.23,0,0,0,.18-3H48.3Z"/><path class="cls-2" d="M51.24,64.26a3.63,3.63,0,0,0,1.17.23c.67,0,.74-.42.74-1a1.34,1.34,0,0,1-1,.4,1.22,1.22,0,0,1-1.24-1.32c0-1,.66-1.75,2-1.75a7.65,7.65,0,0,1,1.44.16c-.09,1-.13,2.05-.15,3.14,0,.7-.41,1.15-1.46,1.15a6.51,6.51,0,0,1-1.51-.19Zm1.68-2.56a.8.8,0,0,0-.86.83.52.52,0,0,0,.5.58c.66,0,.67-.85.68-1.38A1.73,1.73,0,0,0,52.92,61.7Z"/><path class="cls-2" d="M59.73,63.87a6.92,6.92,0,0,1-1.11.09A2,2,0,0,1,56.38,62a2.2,2.2,0,0,1,2.47-2.17,6.35,6.35,0,0,1,1.06.11l0,.9a4.1,4.1,0,0,0-.93-.14A1.27,1.27,0,0,0,57.63,62a1.05,1.05,0,0,0,1.19,1.08,4.18,4.18,0,0,0,1.06-.16Z"/><path class="cls-2" d="M63.84,62.35A1.59,1.59,0,0,1,62.07,64c-1.47,0-1.74-1-1.74-1.48a1.63,1.63,0,0,1,1.8-1.63A1.52,1.52,0,0,1,63.84,62.35Zm-2.34.11c0,.34.16.67.55.67s.62-.42.62-.79-.16-.66-.55-.66S61.5,62.08,61.5,62.46Z"/><path class="cls-2" d="M64.29,63.89l0-1h1.1l-.06,1Z"/><path class="cls-3" d="M1.4,59.92c0,.66-.15,1.83-.15,2.32s.19.85.67.85c.75,0,.77-.59.83-1.27s.08-1.26.09-1.9H4.11c0,.25-.14,1.89-.17,2.8,0,.61-.57,1.24-2,1.24S0,63.33,0,62.78c0-.89.12-1.8.15-2.86Z"/><path class="cls-3" d="M4.61,63.89l0-1h1.1l-.06,1Z"/><path class="cls-3" d="M9.06,60.9a2.35,2.35,0,0,0-.86-.2c-.19,0-.54.07-.54.32,0,.47,1.41.91,1.41,1.79,0,.4-.29,1.15-1.56,1.15a6.66,6.66,0,0,1-1.18-.13l-.09-1a2.61,2.61,0,0,0,1,.26c.2,0,.56,0,.56-.31,0-.46-1.41-.93-1.41-1.86,0-.27.16-1.09,1.51-1.09A5.3,5.3,0,0,1,9,60Z"/><path class="cls-3" d="M9.65,63.89l0-1h1.1l0,1Z"/><path class="cls-3" d="M17.56,61.82A2.13,2.13,0,0,1,15.14,64c-1.22,0-2.33-.58-2.33-1.94a2.18,2.18,0,0,1,2.46-2.17A2,2,0,0,1,17.56,61.82Zm-3.5.16a1.06,1.06,0,0,0,1.11,1.11,1.15,1.15,0,0,0,1.14-1.25,1.05,1.05,0,0,0-1.08-1.12A1.17,1.17,0,0,0,14.06,62Z"/><path class="cls-3" d="M18,63.89a28.08,28.08,0,0,0,.15-3h1.19a29.48,29.48,0,0,0-.11,3Zm.18-3.33v-.71h1.16l0,.71Z"/><path class="cls-3" d="M21.2,59.92c-.06.67-.19,2.93-.21,4H19.81c.11-1.32.18-2.64.21-4Z"/><path class="cls-3" d="M27.05,61.79a2.55,2.55,0,0,1-.36,1.34l.65.76H26.05l-.23-.29a2,2,0,0,1-1.15.36c-1,0-1.55-.51-1.55-1.24s.48-1,1-1.32a1.07,1.07,0,0,1-.2-.59c0-.46.36-1,1.27-1a4.58,4.58,0,0,1,1,.11l0,.89a1.82,1.82,0,0,0-.61-.15c-.21,0-.45.09-.45.34s.61,1,.83,1.26a1.78,1.78,0,0,0,.06-.51Zm-2.4.36c-.2.13-.4.28-.4.54s.26.44.54.44a.7.7,0,0,0,.5-.2Z"/><path class="cls-3" d="M30.59,60.76c-.06,1-.09,2.08-.1,3.13H29.26a38.27,38.27,0,0,0,.19-4h2.09c.29,0,1.43,0,1.43,1.06A1.18,1.18,0,0,1,32,62.14c.24.59.53,1.16.78,1.75H31.5c-.22-.76-.5-1.49-.77-2.22l.29,0c.35,0,.76-.13.76-.54s-.4-.4-.67-.4Z"/><path class="cls-3" d="M34.44,62.58c0,.47.39.63.78.63a4.06,4.06,0,0,0,1-.19l-.14.83a5.15,5.15,0,0,1-1,.11c-1,0-1.77-.28-1.77-1.46A1.58,1.58,0,0,1,35,60.85c1,0,1.51.46,1.51,1.29a2.25,2.25,0,0,1,0,.44Zm1-.54c0-.34-.15-.52-.43-.52a.55.55,0,0,0-.53.52Z"/><path class="cls-3" d="M36.82,61.7l0-.78h.41v-.34c0-.51.25-.83,1-.83a2.92,2.92,0,0,1,.83.12l0,.76a1.55,1.55,0,0,0-.52-.1c-.24,0-.33.1-.33.39H39l0,.78H38.3c0,.76-.08,1.48-.1,2.19H37c.06-.71.09-1.43.13-2.19Z"/><path class="cls-3" d="M39.22,63.89a28.08,28.08,0,0,0,.15-3h1.19a29.48,29.48,0,0,0-.11,3Zm.18-3.33v-.71h1.16l0,.71Z"/><path class="cls-3" d="M42.38,61.31h0a1.31,1.31,0,0,1,1.11-.47c.58,0,1.09.22,1.09.95,0,.16-.08,1.35-.08,2.09H43.34c0-.52.08-1,.08-1.55,0-.29-.08-.56-.43-.56a.63.63,0,0,0-.59.49,8.64,8.64,0,0,0-.15,1.62H41.07a29.23,29.23,0,0,0,.18-3h1.16Z"/><path class="cls-3" d="M45.11,63.89c.1-.9.14-1.78.16-3h1.19a26.81,26.81,0,0,0-.11,3Zm.19-3.33v-.71h1.15l0,.71Z"/><path class="cls-3" d="M48.27,61.31h0a1.31,1.31,0,0,1,1.11-.47c.58,0,1.09.22,1.09.95,0,.16-.08,1.35-.08,2.09H49.22c0-.52.09-1,.09-1.55,0-.29-.09-.56-.43-.56a.62.62,0,0,0-.59.49,8.64,8.64,0,0,0-.15,1.62H47a29.23,29.23,0,0,0,.18-3H48.3Z"/><path class="cls-3" d="M51.24,64.26a3.63,3.63,0,0,0,1.17.23c.67,0,.74-.42.74-1a1.34,1.34,0,0,1-1,.4,1.22,1.22,0,0,1-1.24-1.32c0-1,.66-1.75,2-1.75a7.65,7.65,0,0,1,1.44.16c-.09,1-.13,2.05-.15,3.14,0,.7-.41,1.15-1.46,1.15a6.51,6.51,0,0,1-1.51-.19Zm1.68-2.56a.8.8,0,0,0-.86.83.52.52,0,0,0,.5.58c.66,0,.67-.85.68-1.38A1.73,1.73,0,0,0,52.92,61.7Z"/><path class="cls-3" d="M59.73,63.87a6.92,6.92,0,0,1-1.11.09A2,2,0,0,1,56.38,62a2.2,2.2,0,0,1,2.47-2.17,6.35,6.35,0,0,1,1.06.11l0,.9a4.1,4.1,0,0,0-.93-.14A1.27,1.27,0,0,0,57.63,62a1.05,1.05,0,0,0,1.19,1.08,4.18,4.18,0,0,0,1.06-.16Z"/><path class="cls-3" d="M63.84,62.35A1.59,1.59,0,0,1,62.07,64c-1.47,0-1.74-1-1.74-1.48a1.63,1.63,0,0,1,1.8-1.63A1.52,1.52,0,0,1,63.84,62.35Zm-2.34.11c0,.34.16.67.55.67s.62-.42.62-.79-.16-.66-.55-.66S61.5,62.08,61.5,62.46Z"/><path class="cls-3" d="M64.29,63.89l0-1h1.1l-.06,1Z"/><g class="cls-4"><polyline class="cls-3" points="18.27 19.87 18.27 58.58 14.19 58.58 14.19 19.87"/><polyline class="cls-3" points="26.45 19.87 26.45 58.58 22.36 58.58 22.36 19.87"/><polyline class="cls-3" points="34.62 19.87 34.62 58.58 30.54 58.58 30.54 19.87"/><polyline class="cls-3" points="42.8 19.87 42.8 58.58 38.71 58.58 38.71 19.87"/><polyline class="cls-3" points="50.97 19.87 50.97 58.58 46.88 58.58 46.88 19.87"/><polyline class="cls-3" points="59.15 19.87 59.15 58.58 55.06 58.58 55.06 19.87"/><polyline class="cls-3" points="10.1 19.87 10.1 58.58 6.01 58.58 6.01 19.87"/><line class="cls-1" x1="5.61" y1="20.08" x2="59.15" y2="20.08"/><path class="cls-3" d="M6,.08v20H59.15V.08ZM21.82,12.51l-1.76-1.1-1.76,1.1.32-2.19-1.45-1.4h2.06l.83-2,.83,2H23l-1.45,1.4Zm12.47,2.36-1.76-1.09-1.75,1.09.32-2.18-1.46-1.41H31.7l.84-2,.83,2h2.06L34,12.69Zm12.48-2.36L45,11.41l-1.76,1.1.31-2.19-1.45-1.4h2.06l.83-2,.84,2h2.06l-1.46,1.4Z"/></g><path class="cls-3" d="M32.53,57.75c-.54,0-1.81-1.87-2.23-2.51-10-.41-19.61-5-24-11.52-2.21-3.32-2.79-6.86-1.62-9.95l.11-.16c4.51-4.46,6.88-9.39,6.85-14.25A14,14,0,0,0,7.31,9.29L7,9,16.4,0l.3.21c4.43,3,9.17,4.23,15.83,4.23S43.94,3.17,48.37.21l.3-.21,9.44,9-.35.34a14,14,0,0,0-4.38,10.07c0,4.86,2.34,9.79,6.85,14.25l.11.16c1.17,3.09.59,6.63-1.62,9.95-4.34,6.5-13.94,11.11-23.95,11.52C34.35,55.88,33.09,57.75,32.53,57.75Zm-27-23.56c-1,2.82-.49,5.94,1.56,9C11.33,49.53,20.76,54,30.57,54.33h.25l.13.21a22.73,22.73,0,0,0,1.58,2.14,21.19,21.19,0,0,0,1.59-2.14l.13-.21h.25C44.31,54,53.74,49.53,58,43.21c2-3.08,2.59-6.2,1.56-9-4.65-4.62-7.09-9.75-7-14.84A14.84,14.84,0,0,1,56.78,9L48.57,1.18c-4.5,2.93-9.32,4.18-16,4.18S21,4.11,16.5,1.18L8.29,9a14.84,14.84,0,0,1,4.32,10.39C12.65,24.44,10.21,29.57,5.56,34.19Z"/></g><g id="Black"><g class="cls-5"><rect class="cls-6" x="6" y="0.08" width="53.13" height="20"/><polyline class="cls-2" points="18.26 19.87 18.26 58.58 14.17 58.58 14.17 19.87"/><polyline class="cls-2" points="26.43 19.87 26.43 58.58 22.35 58.58 22.35 19.87"/><polyline class="cls-2" points="34.61 19.87 34.61 58.58 30.52 58.58 30.52 19.87"/><polyline class="cls-2" points="42.78 19.87 42.78 58.58 38.7 58.58 38.7 19.87"/><polyline class="cls-2" points="50.96 19.87 50.96 58.58 46.87 58.58 46.87 19.87"/><polyline class="cls-2" points="59.13 19.87 59.13 58.58 55.04 58.58 55.04 19.87"/><polyline class="cls-2" points="10.09 19.87 10.09 58.58 6 58.58 6 19.87"/><line class="cls-1" x1="5.6" y1="20.08" x2="59.13" y2="20.08"/></g><polygon class="cls-3" points="32.53 13.78 30.78 14.87 31.1 12.69 29.64 11.28 31.7 11.28 32.54 9.27 33.37 11.28 35.43 11.28 33.98 12.69 34.29 14.87 32.53 13.78"/><polygon class="cls-3" points="45.02 11.41 46.77 12.51 46.45 10.32 47.91 8.91 45.84 8.91 45.01 6.91 44.18 8.91 42.12 8.91 43.57 10.32 43.26 12.51 45.02 11.41"/><polygon class="cls-3" points="20.06 11.41 18.3 12.51 18.62 10.32 17.17 8.91 19.23 8.91 20.06 6.91 20.89 8.91 22.95 8.91 21.5 10.32 21.82 12.51 20.06 11.41"/><path class="cls-2" d="M1.4,59.92c0,.66-.15,1.83-.15,2.32s.19.85.67.85c.75,0,.77-.59.83-1.27s.08-1.26.09-1.9H4.11c0,.25-.14,1.89-.17,2.8,0,.61-.57,1.24-2,1.24S0,63.33,0,62.78c0-.89.12-1.8.15-2.86Z"/><path class="cls-2" d="M4.61,63.89l0-1h1.1l-.06,1Z"/><path class="cls-2" d="M9.06,60.9a2.35,2.35,0,0,0-.86-.2c-.19,0-.54.07-.54.32,0,.47,1.41.91,1.41,1.79,0,.4-.29,1.15-1.56,1.15a6.66,6.66,0,0,1-1.18-.13l-.09-1a2.61,2.61,0,0,0,1,.26c.2,0,.56,0,.56-.31,0-.46-1.41-.93-1.41-1.86,0-.27.16-1.09,1.51-1.09A5.3,5.3,0,0,1,9,60Z"/><path class="cls-2" d="M9.65,63.89l0-1h1.1l0,1Z"/><path class="cls-2" d="M17.56,61.82A2.13,2.13,0,0,1,15.14,64c-1.22,0-2.33-.58-2.33-1.94a2.18,2.18,0,0,1,2.46-2.17A2,2,0,0,1,17.56,61.82Zm-3.5.16a1.06,1.06,0,0,0,1.11,1.11,1.15,1.15,0,0,0,1.14-1.25,1.05,1.05,0,0,0-1.08-1.12A1.17,1.17,0,0,0,14.06,62Z"/><path class="cls-2" d="M18,63.89a28.08,28.08,0,0,0,.15-3h1.19a29.48,29.48,0,0,0-.11,3Zm.18-3.33v-.71h1.16l0,.71Z"/><path class="cls-2" d="M21.2,59.92c-.06.67-.19,2.93-.21,4H19.81c.11-1.32.18-2.64.21-4Z"/><path class="cls-2" d="M27.05,61.79a2.55,2.55,0,0,1-.36,1.34l.65.76H26.05l-.23-.29a2,2,0,0,1-1.15.36c-1,0-1.55-.51-1.55-1.24s.48-1,1-1.32a1.07,1.07,0,0,1-.2-.59c0-.46.36-1,1.27-1a4.58,4.58,0,0,1,1,.11l0,.89a1.82,1.82,0,0,0-.61-.15c-.21,0-.45.09-.45.34s.61,1,.83,1.26a1.78,1.78,0,0,0,.06-.51Zm-2.4.36c-.2.13-.4.28-.4.54s.26.44.54.44a.7.7,0,0,0,.5-.2Z"/><path class="cls-2" d="M30.59,60.76c-.06,1-.09,2.08-.1,3.13H29.26a38.27,38.27,0,0,0,.19-4h2.09c.29,0,1.43,0,1.43,1.06A1.18,1.18,0,0,1,32,62.14c.24.59.53,1.16.78,1.75H31.5c-.22-.76-.5-1.49-.77-2.22l.29,0c.35,0,.76-.13.76-.54s-.4-.4-.67-.4Z"/><path class="cls-2" d="M34.44,62.58c0,.47.39.63.78.63a4.06,4.06,0,0,0,1-.19l-.14.83a5.15,5.15,0,0,1-1,.11c-1,0-1.77-.28-1.77-1.46A1.58,1.58,0,0,1,35,60.85c1,0,1.51.46,1.51,1.29a2.25,2.25,0,0,1,0,.44Zm1-.54c0-.34-.15-.52-.43-.52a.55.55,0,0,0-.53.52Z"/><path class="cls-2" d="M36.82,61.7l0-.78h.41v-.34c0-.51.25-.83,1-.83a2.92,2.92,0,0,1,.83.12l0,.76a1.55,1.55,0,0,0-.52-.1c-.24,0-.33.1-.33.39H39l0,.78H38.3c0,.76-.08,1.48-.1,2.19H37c.06-.71.09-1.43.13-2.19Z"/><path class="cls-2" d="M39.22,63.89a28.08,28.08,0,0,0,.15-3h1.19a29.48,29.48,0,0,0-.11,3Zm.18-3.33v-.71h1.16l0,.71Z"/><path class="cls-2" d="M42.38,61.31h0a1.31,1.31,0,0,1,1.11-.47c.58,0,1.09.22,1.09.95,0,.16-.08,1.35-.08,2.09H43.34c0-.52.08-1,.08-1.55,0-.29-.08-.56-.43-.56a.63.63,0,0,0-.59.49,8.64,8.64,0,0,0-.15,1.62H41.07a29.23,29.23,0,0,0,.18-3h1.16Z"/><path class="cls-2" d="M45.11,63.89c.1-.9.14-1.78.16-3h1.19a26.81,26.81,0,0,0-.11,3Zm.19-3.33v-.71h1.15l0,.71Z"/><path class="cls-2" d="M48.27,61.31h0a1.31,1.31,0,0,1,1.11-.47c.58,0,1.09.22,1.09.95,0,.16-.08,1.35-.08,2.09H49.22c0-.52.09-1,.09-1.55,0-.29-.09-.56-.43-.56a.62.62,0,0,0-.59.49,8.64,8.64,0,0,0-.15,1.62H47a29.23,29.23,0,0,0,.18-3H48.3Z"/><path class="cls-2" d="M51.24,64.26a3.63,3.63,0,0,0,1.17.23c.67,0,.74-.42.74-1a1.34,1.34,0,0,1-1,.4,1.22,1.22,0,0,1-1.24-1.32c0-1,.66-1.75,2-1.75a7.65,7.65,0,0,1,1.44.16c-.09,1-.13,2.05-.15,3.14,0,.7-.41,1.15-1.46,1.15a6.51,6.51,0,0,1-1.51-.19Zm1.68-2.56a.8.8,0,0,0-.86.83.52.52,0,0,0,.5.58c.66,0,.67-.85.68-1.38A1.73,1.73,0,0,0,52.92,61.7Z"/><path class="cls-2" d="M59.73,63.87a6.92,6.92,0,0,1-1.11.09A2,2,0,0,1,56.38,62a2.2,2.2,0,0,1,2.47-2.17,6.35,6.35,0,0,1,1.06.11l0,.9a4.1,4.1,0,0,0-.93-.14A1.27,1.27,0,0,0,57.63,62a1.05,1.05,0,0,0,1.19,1.08,4.18,4.18,0,0,0,1.06-.16Z"/><path class="cls-2" d="M63.84,62.35A1.59,1.59,0,0,1,62.07,64c-1.47,0-1.74-1-1.74-1.48a1.63,1.63,0,0,1,1.8-1.63A1.52,1.52,0,0,1,63.84,62.35Zm-2.34.11c0,.34.16.67.55.67s.62-.42.62-.79-.16-.66-.55-.66S61.5,62.08,61.5,62.46Z"/><path class="cls-2" d="M64.29,63.89l0-1h1.1l-.06,1Z"/><path class="cls-1" d="M32.53,57.29a12.92,12.92,0,0,1-2-2.5C14.23,54.24,1.74,43,5.16,33.93c9.28-9.15,8.49-19.19,2.47-25L16.45.59c4.2,2.82,8.87,4.31,16.08,4.31S44.42,3.41,48.62.59L57.44,9c-6,5.79-6.81,15.83,2.47,25,3.42,9.07-9.07,20.31-25.4,20.86A12.52,12.52,0,0,1,32.53,57.29Z"/><g class="cls-5"><rect class="cls-2" x="6" y="0.08" width="53.13" height="20"/><line class="cls-1" x1="5.6" y1="20.08" x2="59.13" y2="20.08"/></g><polygon class="cls-3" points="32.53 13.78 30.78 14.87 31.1 12.69 29.64 11.28 31.7 11.28 32.54 9.27 33.37 11.28 35.43 11.28 33.98 12.69 34.29 14.87 32.53 13.78"/><polygon class="cls-3" points="45.02 11.41 46.77 12.51 46.45 10.32 47.91 8.91 45.84 8.91 45.01 6.91 44.18 8.91 42.12 8.91 43.57 10.32 43.26 12.51 45.02 11.41"/><polygon class="cls-3" points="20.06 11.41 18.3 12.51 18.62 10.32 17.17 8.91 19.23 8.91 20.06 6.91 20.89 8.91 22.95 8.91 21.5 10.32 21.82 12.51 20.06 11.41"/><path class="cls-2" d="M1.4,59.92c0,.66-.15,1.83-.15,2.32s.19.85.67.85c.75,0,.77-.59.83-1.27s.08-1.26.09-1.9H4.11c0,.25-.14,1.89-.17,2.8,0,.61-.57,1.24-2,1.24S0,63.33,0,62.78c0-.89.12-1.8.15-2.86Z"/><path class="cls-2" d="M4.61,63.89l0-1h1.1l-.06,1Z"/><path class="cls-2" d="M9.06,60.9a2.35,2.35,0,0,0-.86-.2c-.19,0-.54.07-.54.32,0,.47,1.41.91,1.41,1.79,0,.4-.29,1.15-1.56,1.15a6.66,6.66,0,0,1-1.18-.13l-.09-1a2.61,2.61,0,0,0,1,.26c.2,0,.56,0,.56-.31,0-.46-1.41-.93-1.41-1.86,0-.27.16-1.09,1.51-1.09A5.3,5.3,0,0,1,9,60Z"/><path class="cls-2" d="M9.65,63.89l0-1h1.1l0,1Z"/><path class="cls-2" d="M17.56,61.82A2.13,2.13,0,0,1,15.14,64c-1.22,0-2.33-.58-2.33-1.94a2.18,2.18,0,0,1,2.46-2.17A2,2,0,0,1,17.56,61.82Zm-3.5.16a1.06,1.06,0,0,0,1.11,1.11,1.15,1.15,0,0,0,1.14-1.25,1.05,1.05,0,0,0-1.08-1.12A1.17,1.17,0,0,0,14.06,62Z"/><path class="cls-2" d="M18,63.89a28.08,28.08,0,0,0,.15-3h1.19a29.48,29.48,0,0,0-.11,3Zm.18-3.33v-.71h1.16l0,.71Z"/><path class="cls-2" d="M21.2,59.92c-.06.67-.19,2.93-.21,4H19.81c.11-1.32.18-2.64.21-4Z"/><path class="cls-2" d="M27.05,61.79a2.55,2.55,0,0,1-.36,1.34l.65.76H26.05l-.23-.29a2,2,0,0,1-1.15.36c-1,0-1.55-.51-1.55-1.24s.48-1,1-1.32a1.07,1.07,0,0,1-.2-.59c0-.46.36-1,1.27-1a4.58,4.58,0,0,1,1,.11l0,.89a1.82,1.82,0,0,0-.61-.15c-.21,0-.45.09-.45.34s.61,1,.83,1.26a1.78,1.78,0,0,0,.06-.51Zm-2.4.36c-.2.13-.4.28-.4.54s.26.44.54.44a.7.7,0,0,0,.5-.2Z"/><path class="cls-2" d="M30.59,60.76c-.06,1-.09,2.08-.1,3.13H29.26a38.27,38.27,0,0,0,.19-4h2.09c.29,0,1.43,0,1.43,1.06A1.18,1.18,0,0,1,32,62.14c.24.59.53,1.16.78,1.75H31.5c-.22-.76-.5-1.49-.77-2.22l.29,0c.35,0,.76-.13.76-.54s-.4-.4-.67-.4Z"/><path class="cls-2" d="M34.44,62.58c0,.47.39.63.78.63a4.06,4.06,0,0,0,1-.19l-.14.83a5.15,5.15,0,0,1-1,.11c-1,0-1.77-.28-1.77-1.46A1.58,1.58,0,0,1,35,60.85c1,0,1.51.46,1.51,1.29a2.25,2.25,0,0,1,0,.44Zm1-.54c0-.34-.15-.52-.43-.52a.55.55,0,0,0-.53.52Z"/><path class="cls-2" d="M36.82,61.7l0-.78h.41v-.34c0-.51.25-.83,1-.83a2.92,2.92,0,0,1,.83.12l0,.76a1.55,1.55,0,0,0-.52-.1c-.24,0-.33.1-.33.39H39l0,.78H38.3c0,.76-.08,1.48-.1,2.19H37c.06-.71.09-1.43.13-2.19Z"/><path class="cls-2" d="M39.22,63.89a28.08,28.08,0,0,0,.15-3h1.19a29.48,29.48,0,0,0-.11,3Zm.18-3.33v-.71h1.16l0,.71Z"/><path class="cls-2" d="M42.38,61.31h0a1.31,1.31,0,0,1,1.11-.47c.58,0,1.09.22,1.09.95,0,.16-.08,1.35-.08,2.09H43.34c0-.52.08-1,.08-1.55,0-.29-.08-.56-.43-.56a.63.63,0,0,0-.59.49,8.64,8.64,0,0,0-.15,1.62H41.07a29.23,29.23,0,0,0,.18-3h1.16Z"/><path class="cls-2" d="M45.11,63.89c.1-.9.14-1.78.16-3h1.19a26.81,26.81,0,0,0-.11,3Zm.19-3.33v-.71h1.15l0,.71Z"/><path class="cls-2" d="M48.27,61.31h0a1.31,1.31,0,0,1,1.11-.47c.58,0,1.09.22,1.09.95,0,.16-.08,1.35-.08,2.09H49.22c0-.52.09-1,.09-1.55,0-.29-.09-.56-.43-.56a.62.62,0,0,0-.59.49,8.64,8.64,0,0,0-.15,1.62H47a29.23,29.23,0,0,0,.18-3H48.3Z"/><path class="cls-2" d="M51.24,64.26a3.63,3.63,0,0,0,1.17.23c.67,0,.74-.42.74-1a1.34,1.34,0,0,1-1,.4,1.22,1.22,0,0,1-1.24-1.32c0-1,.66-1.75,2-1.75a7.65,7.65,0,0,1,1.44.16c-.09,1-.13,2.05-.15,3.14,0,.7-.41,1.15-1.46,1.15a6.51,6.51,0,0,1-1.51-.19Zm1.68-2.56a.8.8,0,0,0-.86.83.52.52,0,0,0,.5.58c.66,0,.67-.85.68-1.38A1.73,1.73,0,0,0,52.92,61.7Z"/><path class="cls-2" d="M59.73,63.87a6.92,6.92,0,0,1-1.11.09A2,2,0,0,1,56.38,62a2.2,2.2,0,0,1,2.47-2.17,6.35,6.35,0,0,1,1.06.11l0,.9a4.1,4.1,0,0,0-.93-.14A1.27,1.27,0,0,0,57.63,62a1.05,1.05,0,0,0,1.19,1.08,4.18,4.18,0,0,0,1.06-.16Z"/><path class="cls-2" d="M63.84,62.35A1.59,1.59,0,0,1,62.07,64c-1.47,0-1.74-1-1.74-1.48a1.63,1.63,0,0,1,1.8-1.63A1.52,1.52,0,0,1,63.84,62.35Zm-2.34.11c0,.34.16.67.55.67s.62-.42.62-.79-.16-.66-.55-.66S61.5,62.08,61.5,62.46Z"/><path class="cls-2" d="M64.29,63.89l0-1h1.1l-.06,1Z"/><path class="cls-2" d="M32.53,57.75c-.54,0-1.81-1.87-2.23-2.51-10-.41-19.61-5-24-11.52-2.21-3.32-2.79-6.86-1.62-9.95l.11-.16c4.51-4.46,6.88-9.39,6.85-14.25A14,14,0,0,0,7.31,9.29L7,9,16.4,0l.3.21c4.43,3,9.17,4.23,15.83,4.23S43.94,3.17,48.37.21l.3-.21,9.44,9-.35.34a14,14,0,0,0-4.38,10.07c0,4.86,2.34,9.79,6.85,14.25l.11.16c1.17,3.09.59,6.63-1.62,9.95-4.34,6.5-13.94,11.11-23.95,11.52C34.35,55.88,33.09,57.75,32.53,57.75Zm-27-23.56c-1,2.82-.49,5.94,1.56,9C11.33,49.53,20.76,54,30.57,54.33h.25l.13.21a22.73,22.73,0,0,0,1.58,2.14,21.19,21.19,0,0,0,1.59-2.14l.13-.21h.25C44.31,54,53.74,49.53,58,43.21c2-3.08,2.59-6.2,1.56-9-4.65-4.62-7.09-9.75-7-14.84A14.84,14.84,0,0,1,56.78,9L48.57,1.18c-4.5,2.93-9.32,4.18-16,4.18S21,4.11,16.5,1.18L8.29,9a14.84,14.84,0,0,1,4.32,10.39C12.65,24.44,10.21,29.57,5.56,34.19Z"/></g><g id="Color"><g class="cls-5"><rect class="cls-6" x="6" y="0.08" width="53.13" height="20"/><polyline class="cls-7" points="18.26 19.87 18.26 58.58 14.17 58.58 14.17 19.87"/><polyline class="cls-7" points="26.43 19.87 26.43 58.58 22.35 58.58 22.35 19.87"/><polyline class="cls-7" points="34.61 19.87 34.61 58.58 30.52 58.58 30.52 19.87"/><polyline class="cls-7" points="42.78 19.87 42.78 58.58 38.7 58.58 38.7 19.87"/><polyline class="cls-7" points="50.96 19.87 50.96 58.58 46.87 58.58 46.87 19.87"/><polyline class="cls-7" points="59.13 19.87 59.13 58.58 55.04 58.58 55.04 19.87"/><polyline class="cls-7" points="10.09 19.87 10.09 58.58 6 58.58 6 19.87"/><line class="cls-8" x1="5.6" y1="20.08" x2="59.13" y2="20.08"/></g><polygon class="cls-9" points="32.53 13.78 30.78 14.87 31.1 12.69 29.64 11.28 31.7 11.28 32.54 9.27 33.37 11.28 35.43 11.28 33.98 12.69 34.29 14.87 32.53 13.78"/><polygon class="cls-9" points="45.02 11.41 46.77 12.51 46.45 10.32 47.91 8.91 45.84 8.91 45.01 6.91 44.18 8.91 42.12 8.91 43.57 10.32 43.26 12.51 45.02 11.41"/><polygon class="cls-9" points="20.06 11.41 18.3 12.51 18.62 10.32 17.17 8.91 19.23 8.91 20.06 6.91 20.89 8.91 22.95 8.91 21.5 10.32 21.82 12.51 20.06 11.41"/><path class="cls-2" d="M1.4,59.92c0,.66-.15,1.83-.15,2.32s.19.85.67.85c.75,0,.77-.59.83-1.27s.08-1.26.09-1.9H4.11c0,.25-.14,1.89-.17,2.8,0,.61-.57,1.24-2,1.24S0,63.33,0,62.78c0-.89.12-1.8.15-2.86Z"/><path class="cls-2" d="M4.61,63.89l0-1h1.1l-.06,1Z"/><path class="cls-2" d="M9.06,60.9a2.35,2.35,0,0,0-.86-.2c-.19,0-.54.07-.54.32,0,.47,1.41.91,1.41,1.79,0,.4-.29,1.15-1.56,1.15a6.66,6.66,0,0,1-1.18-.13l-.09-1a2.61,2.61,0,0,0,1,.26c.2,0,.56,0,.56-.31,0-.46-1.41-.93-1.41-1.86,0-.27.16-1.09,1.51-1.09A5.3,5.3,0,0,1,9,60Z"/><path class="cls-2" d="M9.65,63.89l0-1h1.1l0,1Z"/><path class="cls-2" d="M17.56,61.82A2.13,2.13,0,0,1,15.14,64c-1.22,0-2.33-.58-2.33-1.94a2.18,2.18,0,0,1,2.46-2.17A2,2,0,0,1,17.56,61.82Zm-3.5.16a1.06,1.06,0,0,0,1.11,1.11,1.15,1.15,0,0,0,1.14-1.25,1.05,1.05,0,0,0-1.08-1.12A1.17,1.17,0,0,0,14.06,62Z"/><path class="cls-2" d="M18,63.89a28.08,28.08,0,0,0,.15-3h1.19a29.48,29.48,0,0,0-.11,3Zm.18-3.33v-.71h1.16l0,.71Z"/><path class="cls-2" d="M21.2,59.92c-.06.67-.19,2.93-.21,4H19.81c.11-1.32.18-2.64.21-4Z"/><path class="cls-2" d="M27.05,61.79a2.55,2.55,0,0,1-.36,1.34l.65.76H26.05l-.23-.29a2,2,0,0,1-1.15.36c-1,0-1.55-.51-1.55-1.24s.48-1,1-1.32a1.07,1.07,0,0,1-.2-.59c0-.46.36-1,1.27-1a4.58,4.58,0,0,1,1,.11l0,.89a1.82,1.82,0,0,0-.61-.15c-.21,0-.45.09-.45.34s.61,1,.83,1.26a1.78,1.78,0,0,0,.06-.51Zm-2.4.36c-.2.13-.4.28-.4.54s.26.44.54.44a.7.7,0,0,0,.5-.2Z"/><path class="cls-2" d="M30.59,60.76c-.06,1-.09,2.08-.1,3.13H29.26a38.27,38.27,0,0,0,.19-4h2.09c.29,0,1.43,0,1.43,1.06A1.18,1.18,0,0,1,32,62.14c.24.59.53,1.16.78,1.75H31.5c-.22-.76-.5-1.49-.77-2.22l.29,0c.35,0,.76-.13.76-.54s-.4-.4-.67-.4Z"/><path class="cls-2" d="M34.44,62.58c0,.47.39.63.78.63a4.06,4.06,0,0,0,1-.19l-.14.83a5.15,5.15,0,0,1-1,.11c-1,0-1.77-.28-1.77-1.46A1.58,1.58,0,0,1,35,60.85c1,0,1.51.46,1.51,1.29a2.25,2.25,0,0,1,0,.44Zm1-.54c0-.34-.15-.52-.43-.52a.55.55,0,0,0-.53.52Z"/><path class="cls-2" d="M36.82,61.7l0-.78h.41v-.34c0-.51.25-.83,1-.83a2.92,2.92,0,0,1,.83.12l0,.76a1.55,1.55,0,0,0-.52-.1c-.24,0-.33.1-.33.39H39l0,.78H38.3c0,.76-.08,1.48-.1,2.19H37c.06-.71.09-1.43.13-2.19Z"/><path class="cls-2" d="M39.22,63.89a28.08,28.08,0,0,0,.15-3h1.19a29.48,29.48,0,0,0-.11,3Zm.18-3.33v-.71h1.16l0,.71Z"/><path class="cls-2" d="M42.38,61.31h0a1.31,1.31,0,0,1,1.11-.47c.58,0,1.09.22,1.09.95,0,.16-.08,1.35-.08,2.09H43.34c0-.52.08-1,.08-1.55,0-.29-.08-.56-.43-.56a.63.63,0,0,0-.59.49,8.64,8.64,0,0,0-.15,1.62H41.07a29.23,29.23,0,0,0,.18-3h1.16Z"/><path class="cls-2" d="M45.11,63.89c.1-.9.14-1.78.16-3h1.19a26.81,26.81,0,0,0-.11,3Zm.19-3.33v-.71h1.15l0,.71Z"/><path class="cls-2" d="M48.27,61.31h0a1.31,1.31,0,0,1,1.11-.47c.58,0,1.09.22,1.09.95,0,.16-.08,1.35-.08,2.09H49.22c0-.52.09-1,.09-1.55,0-.29-.09-.56-.43-.56a.62.62,0,0,0-.59.49,8.64,8.64,0,0,0-.15,1.62H47a29.23,29.23,0,0,0,.18-3H48.3Z"/><path class="cls-2" d="M51.24,64.26a3.63,3.63,0,0,0,1.17.23c.67,0,.74-.42.74-1a1.34,1.34,0,0,1-1,.4,1.22,1.22,0,0,1-1.24-1.32c0-1,.66-1.75,2-1.75a7.65,7.65,0,0,1,1.44.16c-.09,1-.13,2.05-.15,3.14,0,.7-.41,1.15-1.46,1.15a6.51,6.51,0,0,1-1.51-.19Zm1.68-2.56a.8.8,0,0,0-.86.83.52.52,0,0,0,.5.58c.66,0,.67-.85.68-1.38A1.73,1.73,0,0,0,52.92,61.7Z"/><path class="cls-2" d="M59.73,63.87a6.92,6.92,0,0,1-1.11.09A2,2,0,0,1,56.38,62a2.2,2.2,0,0,1,2.47-2.17,6.35,6.35,0,0,1,1.06.11l0,.9a4.1,4.1,0,0,0-.93-.14A1.27,1.27,0,0,0,57.63,62a1.05,1.05,0,0,0,1.19,1.08,4.18,4.18,0,0,0,1.06-.16Z"/><path class="cls-2" d="M63.84,62.35A1.59,1.59,0,0,1,62.07,64c-1.47,0-1.74-1-1.74-1.48a1.63,1.63,0,0,1,1.8-1.63A1.52,1.52,0,0,1,63.84,62.35Zm-2.34.11c0,.34.16.67.55.67s.62-.42.62-.79-.16-.66-.55-.66S61.5,62.08,61.5,62.46Z"/><path class="cls-2" d="M64.29,63.89l0-1h1.1l-.06,1Z"/><path class="cls-10" d="M32.53,57.29a12.92,12.92,0,0,1-2-2.5C14.23,54.24,1.74,43,5.16,33.93c9.28-9.15,8.49-19.19,2.47-25L16.45.59c4.2,2.82,8.87,4.31,16.08,4.31S44.42,3.41,48.62.59L57.44,9c-6,5.79-6.81,15.83,2.47,25,3.42,9.07-9.07,20.31-25.4,20.86A12.52,12.52,0,0,1,32.53,57.29Z"/><g class="cls-5"><rect class="cls-6" x="6" y="0.08" width="53.13" height="20"/><polyline class="cls-7" points="18.26 19.87 18.26 58.58 14.17 58.58 14.17 19.87"/><polyline class="cls-7" points="26.43 19.87 26.43 58.58 22.35 58.58 22.35 19.87"/><polyline class="cls-7" points="34.61 19.87 34.61 58.58 30.52 58.58 30.52 19.87"/><polyline class="cls-7" points="42.78 19.87 42.78 58.58 38.7 58.58 38.7 19.87"/><polyline class="cls-7" points="50.96 19.87 50.96 58.58 46.87 58.58 46.87 19.87"/><polyline class="cls-7" points="59.13 19.87 59.13 58.58 55.04 58.58 55.04 19.87"/><polyline class="cls-7" points="10.09 19.87 10.09 58.58 6 58.58 6 19.87"/><line class="cls-8" x1="5.6" y1="20.08" x2="59.13" y2="20.08"/></g><polygon class="cls-3" points="32.53 13.78 30.78 14.87 31.1 12.69 29.64 11.28 31.7 11.28 32.54 9.27 33.37 11.28 35.43 11.28 33.98 12.69 34.29 14.87 32.53 13.78"/><polygon class="cls-3" points="45.02 11.41 46.77 12.51 46.45 10.32 47.91 8.91 45.84 8.91 45.01 6.91 44.18 8.91 42.12 8.91 43.57 10.32 43.26 12.51 45.02 11.41"/><polygon class="cls-3" points="20.06 11.41 18.3 12.51 18.62 10.32 17.17 8.91 19.23 8.91 20.06 6.91 20.89 8.91 22.95 8.91 21.5 10.32 21.82 12.51 20.06 11.41"/><path class="cls-2" d="M1.4,59.92c0,.66-.15,1.83-.15,2.32s.19.85.67.85c.75,0,.77-.59.83-1.27s.08-1.26.09-1.9H4.11c0,.25-.14,1.89-.17,2.8,0,.61-.57,1.24-2,1.24S0,63.33,0,62.78c0-.89.12-1.8.15-2.86Z"/><path class="cls-2" d="M4.61,63.89l0-1h1.1l-.06,1Z"/><path class="cls-2" d="M9.06,60.9a2.35,2.35,0,0,0-.86-.2c-.19,0-.54.07-.54.32,0,.47,1.41.91,1.41,1.79,0,.4-.29,1.15-1.56,1.15a6.66,6.66,0,0,1-1.18-.13l-.09-1a2.61,2.61,0,0,0,1,.26c.2,0,.56,0,.56-.31,0-.46-1.41-.93-1.41-1.86,0-.27.16-1.09,1.51-1.09A5.3,5.3,0,0,1,9,60Z"/><path class="cls-2" d="M9.65,63.89l0-1h1.1l0,1Z"/><path class="cls-2" d="M17.56,61.82A2.13,2.13,0,0,1,15.14,64c-1.22,0-2.33-.58-2.33-1.94a2.18,2.18,0,0,1,2.46-2.17A2,2,0,0,1,17.56,61.82Zm-3.5.16a1.06,1.06,0,0,0,1.11,1.11,1.15,1.15,0,0,0,1.14-1.25,1.05,1.05,0,0,0-1.08-1.12A1.17,1.17,0,0,0,14.06,62Z"/><path class="cls-2" d="M18,63.89a28.08,28.08,0,0,0,.15-3h1.19a29.48,29.48,0,0,0-.11,3Zm.18-3.33v-.71h1.16l0,.71Z"/><path class="cls-2" d="M21.2,59.92c-.06.67-.19,2.93-.21,4H19.81c.11-1.32.18-2.64.21-4Z"/><path class="cls-2" d="M27.05,61.79a2.55,2.55,0,0,1-.36,1.34l.65.76H26.05l-.23-.29a2,2,0,0,1-1.15.36c-1,0-1.55-.51-1.55-1.24s.48-1,1-1.32a1.07,1.07,0,0,1-.2-.59c0-.46.36-1,1.27-1a4.58,4.58,0,0,1,1,.11l0,.89a1.82,1.82,0,0,0-.61-.15c-.21,0-.45.09-.45.34s.61,1,.83,1.26a1.78,1.78,0,0,0,.06-.51Zm-2.4.36c-.2.13-.4.28-.4.54s.26.44.54.44a.7.7,0,0,0,.5-.2Z"/><path class="cls-2" d="M30.59,60.76c-.06,1-.09,2.08-.1,3.13H29.26a38.27,38.27,0,0,0,.19-4h2.09c.29,0,1.43,0,1.43,1.06A1.18,1.18,0,0,1,32,62.14c.24.59.53,1.16.78,1.75H31.5c-.22-.76-.5-1.49-.77-2.22l.29,0c.35,0,.76-.13.76-.54s-.4-.4-.67-.4Z"/><path class="cls-2" d="M34.44,62.58c0,.47.39.63.78.63a4.06,4.06,0,0,0,1-.19l-.14.83a5.15,5.15,0,0,1-1,.11c-1,0-1.77-.28-1.77-1.46A1.58,1.58,0,0,1,35,60.85c1,0,1.51.46,1.51,1.29a2.25,2.25,0,0,1,0,.44Zm1-.54c0-.34-.15-.52-.43-.52a.55.55,0,0,0-.53.52Z"/><path class="cls-2" d="M36.82,61.7l0-.78h.41v-.34c0-.51.25-.83,1-.83a2.92,2.92,0,0,1,.83.12l0,.76a1.55,1.55,0,0,0-.52-.1c-.24,0-.33.1-.33.39H39l0,.78H38.3c0,.76-.08,1.48-.1,2.19H37c.06-.71.09-1.43.13-2.19Z"/><path class="cls-2" d="M39.22,63.89a28.08,28.08,0,0,0,.15-3h1.19a29.48,29.48,0,0,0-.11,3Zm.18-3.33v-.71h1.16l0,.71Z"/><path class="cls-2" d="M42.38,61.31h0a1.31,1.31,0,0,1,1.11-.47c.58,0,1.09.22,1.09.95,0,.16-.08,1.35-.08,2.09H43.34c0-.52.08-1,.08-1.55,0-.29-.08-.56-.43-.56a.63.63,0,0,0-.59.49,8.64,8.64,0,0,0-.15,1.62H41.07a29.23,29.23,0,0,0,.18-3h1.16Z"/><path class="cls-2" d="M45.11,63.89c.1-.9.14-1.78.16-3h1.19a26.81,26.81,0,0,0-.11,3Zm.19-3.33v-.71h1.15l0,.71Z"/><path class="cls-2" d="M48.27,61.31h0a1.31,1.31,0,0,1,1.11-.47c.58,0,1.09.22,1.09.95,0,.16-.08,1.35-.08,2.09H49.22c0-.52.09-1,.09-1.55,0-.29-.09-.56-.43-.56a.62.62,0,0,0-.59.49,8.64,8.64,0,0,0-.15,1.62H47a29.23,29.23,0,0,0,.18-3H48.3Z"/><path class="cls-2" d="M51.24,64.26a3.63,3.63,0,0,0,1.17.23c.67,0,.74-.42.74-1a1.34,1.34,0,0,1-1,.4,1.22,1.22,0,0,1-1.24-1.32c0-1,.66-1.75,2-1.75a7.65,7.65,0,0,1,1.44.16c-.09,1-.13,2.05-.15,3.14,0,.7-.41,1.15-1.46,1.15a6.51,6.51,0,0,1-1.51-.19Zm1.68-2.56a.8.8,0,0,0-.86.83.52.52,0,0,0,.5.58c.66,0,.67-.85.68-1.38A1.73,1.73,0,0,0,52.92,61.7Z"/><path class="cls-2" d="M59.73,63.87a6.92,6.92,0,0,1-1.11.09A2,2,0,0,1,56.38,62a2.2,2.2,0,0,1,2.47-2.17,6.35,6.35,0,0,1,1.06.11l0,.9a4.1,4.1,0,0,0-.93-.14A1.27,1.27,0,0,0,57.63,62a1.05,1.05,0,0,0,1.19,1.08,4.18,4.18,0,0,0,1.06-.16Z"/><path class="cls-2" d="M63.84,62.35A1.59,1.59,0,0,1,62.07,64c-1.47,0-1.74-1-1.74-1.48a1.63,1.63,0,0,1,1.8-1.63A1.52,1.52,0,0,1,63.84,62.35Zm-2.34.11c0,.34.16.67.55.67s.62-.42.62-.79-.16-.66-.55-.66S61.5,62.08,61.5,62.46Z"/><path class="cls-2" d="M64.29,63.89l0-1h1.1l-.06,1Z"/><path class="cls-10" d="M32.53,57.29a12.92,12.92,0,0,1-2-2.5C14.23,54.24,1.74,43,5.16,33.93c9.28-9.15,8.49-19.19,2.47-25L16.45.59c4.2,2.82,8.87,4.31,16.08,4.31S44.42,3.41,48.62.59L57.44,9c-6,5.79-6.81,15.83,2.47,25,3.42,9.07-9.07,20.31-25.4,20.86A12.52,12.52,0,0,1,32.53,57.29Z"/></g></g></svg>