<svg xmlns="http://www.w3.org/2000/svg" xmlns:xlink="http://www.w3.org/1999/xlink" width="22" height="26" viewBox="0 0 22 26">
    <defs>
        <path id="vlppu0m2pa" d="M0 0.043L19 0.043 19 26 0 26z"/>
    </defs>
    <g fill="none" fill-rule="evenodd">
        <g>
            <g>
                <g transform="translate(-992 -1875) translate(992 1875)">
                    <g transform="translate(3)">
                        <mask id="bt4f5s48ob" fill="#fff">
                            <use xlink:href="#vlppu0m2pa"/>
                        </mask>
                        <path fill="#00519C" d="M10.556.043v.043H1.367C.651.086 0 .654 0 1.387v9.41h1.098V2.02c0-.486.413-.897.888-.897h8.57v6.238c0 .728.656 1.363 1.368 1.363h6.063v15.283c0 .487-.363.87-.838.87H1.986c-.475 0-.888-.383-.888-.87v-4.485H0v5.118C0 25.373.65 26 1.367 26h16.4c.717 0 1.233-.627 1.233-1.36V8.687L10.556.043z" mask="url(#bt4f5s48ob)"/>
                    </g>
                    <rect width="17" height="8.3" y="11" fill="#00519C" rx="1"/>
                    <text fill="#FFF" font-family="SourceSansPro-Bold, Source Sans Pro" font-size="6" font-weight="bold" letter-spacing="-.207">
                        <tspan x="3" y="18">PDF</tspan>
                    </text>
                </g>
            </g>
        </g>
    </g>
</svg>
