<svg xmlns="http://www.w3.org/2000/svg" width="24" height="24" viewBox="0 0 24 24">
    <path fill="#297FCA" fill-rule="nonzero" d="M12 0c6.644 0 12 5.356 12 12s-5.356 12-12 12S0 18.644 0 12 5.356 0 12 0zm4.114 16H7.378a.99.99 0 0 0-.978 1.002.99.99 0 0 0 .978 1.003h8.736a.99.99 0 0 0 .979-1.003.99.99 0 0 0-.979-1.002zm-4.688-1.478a.99.99 0 0 0 .64.292c.028.002.055.008.083.008.028 0 .055-.006.082-.008a.99.99 0 0 0 .642-.292l3.132-3.18a1.029 1.029 0 0 0 0-1.44.994.994 0 0 0-1.42 0l-1.446 1.468V6.602a.996.996 0 0 0-.99-1.002.996.996 0 0 0-.99 1.002v4.768L9.714 9.903a.994.994 0 0 0-1.42 0 1.029 1.029 0 0 0 0 1.44l3.132 3.18z"/>
</svg>
