<svg xmlns="http://www.w3.org/2000/svg" width="30" height="30" viewBox="0 0 30 30">
    <path fill="#0a3b61" fill-rule="nonzero" d="M15 19h-2v2h2v-2zm5-3v-2h-2v2h2zm-3 0v-2h-2v2h2zm-2 0h-2v2h2v-2zm-2 0h2v-2h-2v2zm2-16c8.305 0 15 6.695 15 15s-6.695 15-15 15S0 23.305 0 15 6.695 0 15 0zm3 10a.99.99 0 0 0 1-.984v-1.03A.992.992 0 0 0 18 7c-.553 0-1 .44-1 .986v1.03A.99.99 0 0 0 18 10zm3.984-.972h-2.125v.56c0 .924-.72 1.677-1.607 1.677-.888 0-1.606-.753-1.606-1.677v-.56h-4.288v.56c0 .924-.72 1.677-1.607 1.677s-1.607-.753-1.607-1.677v-.56L7 9v14H20.929L22 22.997l-.016-13.97zM20.999 22H8v-9h13v9h-.001zm-10-12C11.552 10 12 9.562 12 9.016v-1.03A.992.992 0 0 0 11 7a.99.99 0 0 0-1 .986v1.03A.99.99 0 0 0 11 10zM15 16v2h2v-2h-2zm3 0v2h2v-2h-2zm-8 0v2h2v-2h-2zm0 3v2h2v-2h-2zm5 0v2h2v-2h-2zm3 0v2h2v-2h-2z"/>
</svg>
