<?xml version="1.0" encoding="utf-8"?>
<!-- Generator: Adobe Illustrator 24.0.0, SVG Export Plug-In . SVG Version: 6.00 Build 0)  -->
<svg version="1.1" id="Layer_1" xmlns="http://www.w3.org/2000/svg" xmlns:xlink="http://www.w3.org/1999/xlink" x="0px" y="0px"
	 viewBox="0 0 34 29" style="enable-background:new 0 0 34 29;" xml:space="preserve">
<style type="text/css">
	.st0{fill-rule:evenodd;clip-rule:evenodd;fill:#3FA2F7;stroke:#3FA2F7;}
</style>
<path class="st0" d="M33,21.8c0,1.7-0.6,3.2-1.9,4.4c-1.3,1.2-2.9,1.8-4.8,1.8c-2,0-3.8-0.7-5.3-2.2c-1.5-1.5-2.3-3.7-2.3-6.6
	c0-3,0.4-5.7,1.3-7.9c0.9-2.2,2-4.1,3.4-5.6c1.3-1.5,2.8-2.6,4.5-3.4C29.5,1.6,31,1.1,32.5,1v4.9c-2.3,0.6-4.1,1.8-5.5,3.8
	c-1.4,2-2.2,4.1-2.2,6.2c0.1-0.1,0.4-0.3,0.7-0.4c0.3-0.1,0.8-0.2,1.3-0.2c1.7,0,3.2,0.6,4.4,1.7C32.4,18.2,33,19.8,33,21.8z
	 M15.3,21.8c0,1.7-0.6,3.2-1.9,4.4c-1.3,1.2-2.9,1.8-4.8,1.8c-2,0-3.8-0.7-5.3-2.2C1.8,24.4,1,22.1,1,19.2c0-3,0.4-5.7,1.3-7.9
	c0.9-2.2,2-4.1,3.4-5.6s2.8-2.6,4.5-3.4c1.6-0.8,3.2-1.2,4.6-1.4v4.9c-2.3,0.6-4.1,1.8-5.5,3.8S7.1,13.8,7,16
	c0.1-0.1,0.4-0.3,0.7-0.4c0.3-0.1,0.8-0.2,1.3-0.2c1.7,0,3.2,0.6,4.4,1.7S15.3,19.8,15.3,21.8L15.3,21.8z"/>
</svg>
