<?xml version="1.0" encoding="UTF-8"?>
<svg width="30px" height="30px" viewBox="0 0 30 30" version="1.1" xmlns="http://www.w3.org/2000/svg" xmlns:xlink="http://www.w3.org/1999/xlink">
    <!-- Generator: sketchtool 48.2 (47327) - http://www.bohemiancoding.com/sketch -->
    <title>5C1498D1-1FF5-4C6A-B320-900682E4B231</title>
    <desc>Created with sketchtool.</desc>
    <defs></defs>
    <g id="Sign-posts-/-#12-—-2-columns-/-Desktop-" stroke="none" stroke-width="1" fill="none" fill-rule="evenodd" transform="translate(-20.000000, -20.000000)">
        <path d="M35,20 C43.304878,20 50,26.695122 50,35 C50,43.304878 43.304878,50 35,50 C26.695122,50 20,43.304878 20,35 C20,26.695122 26.695122,20 35,20 Z M40.1429048,40 L29.2229806,40 C28.5475727,40 28,40.5610253 28,41.2530518 C28,41.9450782 28.547628,42.5061035 29.2229806,42.5061035 L40.1429048,42.5061035 C40.8183127,42.5061035 41.3658854,41.9450782 41.3658854,41.2530518 C41.3658854,40.5610253 40.8183127,40 40.1429048,40 Z M34.281898,38.1530736 C34.5050426,38.3793991 34.7916346,38.4973506 35.0834816,38.5175692 C35.1181094,38.5205376 35.1513543,38.5280986 35.1867012,38.5280986 C35.2217162,38.5280986 35.2546292,38.5205376 35.2888698,38.5176812 C35.5811594,38.4976866 35.8681939,38.3796792 36.0916151,38.1530736 L40.0059385,34.1784021 C40.4960933,33.6813372 40.4960933,32.8752798 40.0059385,32.3782149 C39.5158391,31.8810939 38.7212253,31.8810939 38.2310706,32.3782149 L36.4243406,34.2127906 L36.4243406,28.2530518 C36.4243406,27.5610253 35.8702959,27 35.1867012,27 C34.5032172,27 33.9491725,27.5610253 33.9491725,28.2530518 L33.9491725,34.2127906 L32.1424425,32.3782149 C31.6523431,31.8810939 30.857674,31.8810939 30.3675746,32.3782149 C29.8774751,32.8752798 29.8774751,33.6813372 30.3675746,34.1784021 L34.281898,38.1530736 Z" id="Combined-Shape" fill="#FFFFFF" fill-rule="nonzero"></path>
    </g>
</svg>