<?xml version="1.0" encoding="UTF-8"?>
<svg width="30px" height="30px" viewBox="0 0 30 30" version="1.1" xmlns="http://www.w3.org/2000/svg" xmlns:xlink="http://www.w3.org/1999/xlink">
    <!-- Generator: sketchtool 48.2 (47327) - http://www.bohemiancoding.com/sketch -->
    <title>C7B69459-C62A-4523-9EA3-60F500A7EC4E</title>
    <desc>Created with sketchtool.</desc>
    <defs></defs>
    <g id="Sign-posts-/-#9-—-2-columns-/-Desktop" stroke="none" stroke-width="1" fill="none" fill-rule="evenodd" transform="translate(-20.000000, -20.000000)">
        <path d="M35,20 C26.695122,20 20,26.695122 20,35 C20,43.304878 26.695122,50 35,50 C43.304878,50 50,43.304878 50,35 C50,26.695122 43.304878,20 35,20 Z M41.6585366,35.695122 L31.6707317,41.5487805 C31.5609756,41.6219512 31.3780488,41.6585366 31.2682927,41.6585366 C31.1585366,41.6585366 30.9756098,41.6219512 30.8658537,41.5487805 C30.6097561,41.3658537 30.4634146,41.1463415 30.4634146,40.8536585 L30.4634146,29.1829268 L30.4268293,29.1829268 C30.4268293,28.8902439 30.6097561,28.597561 30.8292683,28.4878049 C31.0487805,28.3780488 31.4146341,28.304878 31.6707317,28.4878049 L41.6585366,34.304878 C41.9146341,34.4878049 42.0609756,34.7073171 42.0609756,35 C42.0609756,35.2926829 41.8780488,35.5853659 41.6585366,35.695122 Z" id="Shape" fill="#FFFFFF" fill-rule="nonzero"></path>
    </g>
</svg>