<svg xmlns="http://www.w3.org/2000/svg" width="25" height="25" viewBox="0 0 25 25">
    <path fill="#61B3E5" fill-rule="evenodd" d="M12.5 0C19.42 0 25 5.58 25 12.5S19.42 25 12.5 25 0 19.42 0 12.5 5.58 0 12.5 0zm3.158 10.595c-1.161 0-1.716.58-2.036 1.031l-.057.083v-.956h-2.321c.03.616.001 6.42 0 6.733v.014h2.32v-3.768c0-.2.019-.403.08-.548.17-.402.548-.82 1.191-.82.791 0 1.134.547 1.172 1.368l.003.157V17.5h2.323v-3.868c0-2.073-1.144-3.037-2.675-3.037zm-5.698.158H7.64V17.5H9.96v-6.747zm3.605.956v.023h-.013c.003-.008.01-.015.013-.023zM8.814 7.5C8.02 7.5 7.5 8.003 7.5 8.667c0 .646.505 1.166 1.284 1.166h.014c.812 0 1.315-.52 1.315-1.166C10.097 8.003 9.61 7.5 8.814 7.5z"/>
</svg>
