<svg xmlns="http://www.w3.org/2000/svg" width="19" height="19" viewBox="0 0 19 19">
    <path fill="#0A3B61" fill-rule="evenodd" d="M18.195 17.132l-4.424-4.602c1.137-1.352 1.76-3.053 1.76-4.825C15.532 3.567 12.166.2 8.027.2 3.888.2.521 3.567.521 7.705c0 4.139 3.367 7.506 7.505 7.506 1.554 0 3.034-.47 4.3-1.359l4.458 4.637c.186.193.437.3.706.3.254 0 .495-.097.678-.273.389-.375.401-.995.027-1.384zM8.026 2.158c3.06 0 5.548 2.488 5.548 5.547 0 3.06-2.489 5.548-5.548 5.548S2.48 10.764 2.48 7.705s2.488-5.547 5.547-5.547z"/>
</svg>
