<svg xmlns="http://www.w3.org/2000/svg" xmlns:xlink="http://www.w3.org/1999/xlink" width="25" height="25" viewBox="0 0 25 25">
    <defs>
        <path id="prefix__a" d="M15.5 3C22.42 3 28 8.58 28 15.5S22.42 28 15.5 28 3 22.42 3 15.5 8.58 3 15.5 3zm2.82 7.5c-1.416 0-2.564 1.13-2.564 2.525 0 .198.023.39.067.575-2.131-.105-4.02-1.11-5.285-2.638-.221.372-.347.806-.347 1.269 0 .876.453 1.65 1.14 2.102-.42-.014-.815-.128-1.161-.317v.031c0 1.223.884 2.244 2.056 2.476-.214.057-.441.089-.675.089-.166 0-.326-.016-.483-.047.326 1.004 1.273 1.734 2.395 1.754-.877.677-1.983 1.08-3.185 1.08-.207 0-.41-.013-.611-.035 1.135.717 2.482 1.136 3.93 1.136 4.717 0 7.296-3.848 7.296-7.185l-.009-.327c.504-.354.94-.799 1.283-1.305-.46.201-.954.337-1.473.398.53-.312.935-.808 1.127-1.396-.496.289-1.045.499-1.629.613-.468-.492-1.133-.798-1.872-.798z"/>
    </defs>
    <g fill="none" fill-rule="evenodd" transform="translate(-3 -3)">
        <mask id="prefix__b" fill="#fff">
            <use xlink:href="#prefix__a"/>
        </mask>
        <use fill="#FFF" xlink:href="#prefix__a"/>
        <g fill="#61B3E5" mask="url(#prefix__b)">
            <path d="M0 0H30V30H0z"/>
        </g>
    </g>
</svg>
