<svg width="512" height="512" viewBox="0 0 64 64" xmlns="http://www.w3.org/2000/svg" xmlns:xlink="http://www.w3.org/1999/xlink" overflow="hidden"><g id="Ecology-Earth-Hand-Environment-World"><path d="M53.03 44.04C52.0075 43.7578 50.9142 43.9021 50 44.44L41.27 49.48C41.2965 49.3212 41.3132 49.1609 41.32 49 41.3175 48.7106 41.284 48.4223 41.22 48.14 53.4494 43.0422 59.2307 28.9958 54.1329 16.7665 49.0351 4.53713 34.9887-1.24417 22.7594 3.85359 10.53 8.95135 4.74873 22.9978 9.84649 35.2271 11.3387 38.807 13.6767 41.9717 16.66 44.45 16.5813 44.486 16.5046 44.5261 16.43 44.57L14.04 46 8 46 8 48 14.32 48C14.4995 47.9999 14.6756 47.9516 14.83 47.86L17.46 46.28C18.8582 45.4403 20.459 44.9977 22.09 45L23.39 45C24.5338 45.0005 25.6671 45.2177 26.73 45.64L29.95 46.93C30.067 46.9792 30.1931 47.003 30.32 47L37.32 47C38.4246 47 39.32 47.8954 39.32 49 39.32 50.1046 38.4246 51 37.32 51L27 51 27 53 37.83 53C38.7076 52.9995 39.5698 52.7685 40.33 52.33L51 46.17C51.4588 45.9007 52.0071 45.8286 52.52 45.97 53.586 46.2593 54.2156 47.358 53.9263 48.424 53.7884 48.9323 53.4555 49.3657 53 49.63L39.37 57.51C36.6007 59.1135 33.3901 59.7864 30.21 59.43L17.43 58.01C17.357 58 17.283 58 17.21 58.01L7.89 59.01 8.11 60.99 17.32 60.01 29.99 61.41C30.6208 61.4815 31.2551 61.5182 31.89 61.52 34.8678 61.5178 37.7926 60.7314 40.37 59.24L54 51.37C55.9124 50.2617 56.5657 47.8139 55.46 45.9 54.9343 44.9774 54.0579 44.3065 53.03 44.04ZM54 26C53.9904 30.2632 52.7432 34.4319 50.41 38L49 36.59 49 33.33C48.9992 32.8974 48.8589 32.4766 48.6 32.13L46 28.67 46 25.44C45.9968 24.9077 45.785 24.3978 45.41 24.02L44.15 22.77C43.6214 22.2274 42.8317 22.03 42.11 22.26L39.96 22.96 36.82 22.2 36.07 19.19 37.54 17 40.7 17 43.27 18.71C43.4896 18.8554 43.7334 18.9604 43.99 19.02L48.47 19.92C48.9374 19.9928 49.4157 19.9084 49.83 19.68L52.54 18.13C53.5057 20.6415 54.0006 23.3093 54 26ZM44.41 7.85C45.9183 8.88222 47.2922 10.0982 48.5 11.47L47.93 11.85 44.79 10.28C44.3617 10.0589 43.8673 10.002 43.4 10.12L40.18 10.92 38.38 9.73 39.54 8 43.7 8C43.944 7.99556 44.185 7.94465 44.41 7.85ZM26.18 4.79 26.88 6.04C27.1699 6.58761 27.6988 6.96854 28.31 7.07L32.31 7.73 31.38 9.12 28.08 9.95C27.6434 10.0604 27.2583 10.3183 26.99 10.68L24.34 14.21 20.67 16.05 16.61 16.86C15.6747 17.046 15.0008 17.8664 15 18.82L15 20.46C15.0001 21.1326 15.3383 21.7601 15.9 22.13L18 23.54 18 25.39 13.65 23.21 10.92 19.71C13.1091 12.4474 18.8699 6.81493 26.18 4.79ZM27 42.62 27 43.62C26.3815 43.4062 25.7458 43.2456 25.1 43.14L24 39.85 24 36.62C24.0062 35.862 23.5791 35.1669 22.9 34.83L21.6 34.18 20 32.59 20 29.57 23.85 27.23 25.98 29.39C26.3573 29.7803 26.8771 30.0005 27.42 30L30.46 30 31.84 32.09C32.2076 32.6555 32.8355 32.9977 33.51 33L34.68 33 34.12 35.25 32.38 35.82C31.5679 36.0947 31.0184 36.8528 31.01 37.71L31 39.38 28.1 40.83C27.4209 41.1669 26.9938 41.862 27 42.62ZM40.3 46.36C39.5485 45.4992 38.4627 45.0037 37.32 45L30.51 45 29 44.4 29 42.61 31.89 41.17C32.5633 40.8355 32.9921 40.1517 33 39.4L33.01 37.72 34.75 37.15C35.4001 36.9308 35.8938 36.3956 36.06 35.73L36.62 33.49C36.8906 32.4191 36.2419 31.3316 35.171 31.061 35.0105 31.0204 34.8455 30.9999 34.68 31L33.52 31 32.13 28.89C31.7564 28.3336 31.1302 27.9999 30.46 28L27.42 28 25.27 25.82C24.6102 25.1692 23.5926 25.0498 22.8 25.53L18.94 27.88C18.354 28.2462 17.9986 28.889 18 29.58L18 32.59C18.0013 33.1178 18.2095 33.624 18.58 34L20.18 35.6C20.3349 35.7446 20.5101 35.8659 20.7 35.96L22 36.62 22 39.85C22.0057 40.0667 22.0393 40.2818 22.1 40.49L22.94 43 22.09 43C20.9556 43.0077 19.8291 43.1899 18.75 43.54 13.2471 39.3866 10.0084 32.8944 10 26 10.003 24.7296 10.1134 23.4618 10.33 22.21L12.06 24.42C12.2433 24.6603 12.4794 24.8553 12.75 24.99L17.11 27.18C17.3865 27.3176 17.6911 27.3895 18 27.39 18.3751 27.3861 18.7419 27.2789 19.06 27.08 19.6479 26.7156 20.0039 26.0716 20 25.38L20 23.54C19.9999 22.8674 19.6617 22.2399 19.1 21.87L17 20.46 17 18.82 21.09 18.01C21.2561 17.9677 21.4171 17.9074 21.57 17.83L25.24 16C25.521 15.868 25.7624 15.6646 25.94 15.41L28.58 11.88 31.85 11.06C32.3392 10.9541 32.7668 10.6594 33.04 10.24L33.98 8.84C34.3498 8.2703 34.4099 7.55329 34.14 6.93 33.8694 6.31195 33.3053 5.87202 32.64 5.76L28.64 5.09 28.21 4.33C29.4618 4.11382 30.7296 4.00343 32 4 35.1585 3.99903 38.2799 4.6813 41.15 6L39.54 6C38.8698 5.99986 38.2436 6.33359 37.87 6.89L36.71 8.62C36.1094 9.54035 36.364 10.7728 37.28 11.38L39.08 12.58C39.5449 12.898 40.1244 13.0001 40.67 12.86L43.88 12.06 47.03 13.63C47.3077 13.7753 47.6166 13.8508 47.93 13.85 48.3222 13.8481 48.7051 13.7297 49.03 13.51L49.76 13.03C50.5137 14.055 51.173 15.1461 51.73 16.29L48.83 17.95 44.39 17.06 41.82 15.35C41.4907 15.1227 41.1001 15.0007 40.7 15L37.54 15C36.8698 14.9999 36.2436 15.3336 35.87 15.89L34.39 18.1C34.0966 18.5675 34.0063 19.1344 34.14 19.67L34.88 22.68C35.0601 23.4023 35.6265 23.9648 36.35 24.14L39.45 24.89C39.8216 24.9901 40.2143 24.9797 40.58 24.86L42.73 24.17 44 25.44 44 28.67C44.0008 29.1026 44.1411 29.5234 44.4 29.87L47 33.33 47 36.59C47.0013 37.1178 47.2095 37.624 47.58 38L49.23 39.64C46.8872 42.6172 43.8096 44.9332 40.3 46.36Z" fill="#FFFFFF"/></g></svg>