<svg id="Layer_1" data-name="Layer 1" xmlns="http://www.w3.org/2000/svg" viewBox="0 0 60.5 60.5"><defs><style>.cls-1{fill:none;}.cls-2{fill:#fff;}</style></defs><rect class="cls-1" width="60.5" height="60.5"/><rect class="cls-1" x="0.24" y="0.24" width="60.26" height="60.26"/><rect class="cls-1" x="0.24" y="0.24" width="60.26" height="60.26"/><polyline class="cls-1" points="0.24 60.5 0.24 0.24 60.5 0.24 60.5 60.5"/><path class="cls-2" d="M41,25.35A5.33,5.33,0,1,1,46.37,20,5.34,5.34,0,0,1,41,25.35Zm0-8.74A3.41,3.41,0,1,0,44.44,20,3.42,3.42,0,0,0,41,16.61Z" transform="translate(-0.5 -0.5)"/><path class="cls-2" d="M60.3,1.8a1,1,0,0,0-.9-.9C52.25.35,39,.73,30.76,9.4h0a30.53,30.53,0,0,0-3.1,3.95c-12,4.32-17.3,12.19-18.55,16.19A1,1,0,0,0,10,30.79l8.72.66q-1.08,2.85-1.95,5.71a1,1,0,0,0,.24,1l5.83,5.78a1,1,0,0,0,1,.24c1.95-.58,3.89-1.24,5.82-2l.67,8.71a1,1,0,0,0,1.25.85c3.68-1.13,11.77-6.43,16.31-18.43a28.49,28.49,0,0,0,4-3.09c8.59-8.1,9-21.29,8.53-28.43C60.27,1.32,60.8,8.94,60.3,1.8Zm-1.89,1a46.58,46.58,0,0,1-1.15,13.71L44.56,3.89A46.78,46.78,0,0,1,58.41,2.77ZM11.41,29c1.56-3.43,6-9.11,14.53-12.84-1.44,2.47-2.68,5-3.78,7.29-1,2-1.91,4.08-2.74,6.15Zm20.68,20.5-.62-8c2.07-.82,4.13-1.72,6.16-2.69,2.3-1.09,4.88-2.32,7.37-3.73C41.13,43.58,35.48,47.93,32.09,49.46ZM50.43,28.83c-3.64,3.45-9,6-13.64,8.19a93.52,93.52,0,0,1-13,5.11l-5-5A91.07,91.07,0,0,1,23.9,24.26c2.14-4.39,4.8-9.84,8.27-13.53A24.22,24.22,0,0,1,42.43,4.51L56.64,18.6A23.92,23.92,0,0,1,50.43,28.83Z" transform="translate(-0.5 -0.5)"/><path class="cls-2" d="M2.77,60.42a1,1,0,0,1-.7-1.64l13.3-13.73a1,1,0,0,1,1.39,1.34L3.47,60.12A1,1,0,0,1,2.77,60.42Z" transform="translate(-0.5 -0.5)"/><path class="cls-2" d="M12.13,61a1,1,0,0,1-.73-1.61L20,49.71A1,1,0,0,1,21.47,51l-8.62,9.67A1,1,0,0,1,12.13,61Z" transform="translate(-0.5 -0.5)"/><path class="cls-2" d="M2.19,51.73a1,1,0,0,1-.73-1.62l8.62-9.67a1,1,0,0,1,1.45,1.28L2.91,51.4A1,1,0,0,1,2.19,51.73Z" transform="translate(-0.5 -0.5)"/></svg>