<svg width="253" height="253" xmlns="http://www.w3.org/2000/svg" xmlns:xlink="http://www.w3.org/1999/xlink" overflow="hidden"><defs><clipPath id="clip0"><rect x="968" y="61" width="253" height="253"/></clipPath><clipPath id="clip1"><rect x="968" y="62" width="252" height="252"/></clipPath><clipPath id="clip2"><rect x="968" y="62" width="252" height="252"/></clipPath><clipPath id="clip3"><rect x="968" y="62" width="252" height="252"/></clipPath></defs><g clip-path="url(#clip0)" transform="translate(-968 -61)"><g clip-path="url(#clip1)"><g clip-path="url(#clip2)"><g clip-path="url(#clip3)"><path d="M1217.76 127.78 1191.75 82.7334C1189.51 78.8524 1185.89 76.0759 1181.56 74.9158 1177.23 73.7557 1172.71 74.3512 1168.83 76.5922 1164.95 78.8327 1162.17 82.4508 1161.01 86.7797 1160.76 87.705 1160.6 88.6392 1160.51 89.5739L1154.72 92.9199C1151.76 91.0796 1148.55 89.6906 1145.14 88.78L1108.51 78.9616C1104.31 77.836 1099.93 78.4128 1096.17 80.5839 1092.41 82.7511 1089.72 86.259 1088.59 90.4604 1087.47 94.6564 1088.05 99.0389 1090.22 102.801 1092.39 106.563 1095.9 109.253 1100.09 110.375L1107.07 112.247 1101.68 115.361 1067.79 95.8002C1057.76 90.0046 1045.76 89.4666 1035.3 94.2528L1027.5 89.7467C1027.05 84.2966 1023.95 79.3421 1019.18 76.5907 1011.17 71.9675 1000.89 74.7218 996.261 82.7309L992.948 88.465C991.928 90.2305 992.533 92.4882 994.298 93.5081 996.063 94.5279 998.321 93.9235 999.341 92.1585L1002.65 86.4239C1005.24 81.9389 1011 80.3969 1015.49 82.9863 1018.38 84.6569 1020.18 87.7803 1020.18 91.1386 1020.18 92.7796 1019.75 94.397 1018.93 95.8194L992.918 140.866C990.329 145.353 984.571 146.897 980.086 144.309 977.185 142.632 975.383 139.509 975.383 136.159 975.383 134.523 975.82 132.904 976.645 131.473L991.997 104.885C993.016 103.119 992.412 100.861 990.646 99.8422 988.88 98.8228 986.623 99.4277 985.603 101.193L970.252 127.782C968.779 130.332 968 133.229 968 136.159 968 142.137 971.215 147.709 976.392 150.701 979.028 152.222 981.908 152.944 984.75 152.944 987.18 152.944 989.579 152.41 991.78 151.403L997.586 154.757C997.471 158.243 997.872 161.717 998.785 165.114L1008.6 201.75C1009.72 205.951 1012.42 209.458 1016.18 211.623 1018.68 213.072 1021.46 213.812 1024.28 213.812 1025.69 213.812 1027.11 213.626 1028.52 213.25 1037.18 210.927 1042.34 201.992 1040.02 193.331L1038.15 186.354 1047.79 191.921 1047.79 233.178C1047.79 244.767 1053.32 255.426 1062.69 262.089L1062.69 271.1C1058.33 274.132 1055.46 279.179 1055.46 284.885 1055.46 294.136 1062.99 301.663 1072.24 301.663L1124.26 301.663C1133.51 301.663 1141.04 294.136 1141.04 284.885 1141.04 279.242 1138.23 274.245 1133.95 271.202L1133.95 264.499C1137.03 262.855 1139.84 260.77 1142.32 258.281L1146.61 253.999C1148.05 252.558 1148.05 250.221 1146.61 248.779 1145.17 247.336 1142.84 247.335 1141.39 248.776L1137.1 253.062C1134.68 255.491 1131.86 257.433 1128.75 258.834 1127.42 259.43 1126.57 260.748 1126.57 262.202L1126.57 268.27C1125.81 268.166 1125.04 268.107 1124.26 268.107L1072.24 268.107C1071.51 268.107 1070.79 268.16 1070.08 268.251L1070.08 260.115C1070.08 258.75 1069.34 257.559 1068.23 256.921 1060.05 251.727 1055.17 242.862 1055.17 233.178L1055.17 165.862C1055.17 161.984 1058.25 158.749 1062.02 158.65 1063.99 158.602 1065.82 159.329 1067.19 160.71 1068.52 162.037 1069.25 163.799 1069.26 165.674L1069.26 200.34C1069.26 202.378 1070.91 204.031 1072.95 204.031 1074.99 204.031 1076.64 202.378 1076.64 200.34L1076.64 156.495C1076.64 152.612 1079.8 149.453 1083.68 149.453 1087.56 149.453 1090.72 152.612 1090.72 156.495L1090.72 200.34C1090.72 202.378 1092.37 204.031 1094.41 204.031 1096.45 204.031 1098.1 202.378 1098.1 200.34L1098.1 151.404C1098.1 147.521 1101.26 144.362 1105.15 144.362 1109.03 144.362 1112.19 147.521 1112.19 151.404L1112.19 200.338C1112.19 202.376 1113.84 204.029 1115.88 204.029 1117.92 204.029 1119.57 202.376 1119.57 200.338L1119.57 156.423C1119.59 154.566 1120.32 152.826 1121.64 151.51 1122.97 150.181 1124.73 149.449 1126.61 149.449 1130.5 149.449 1133.65 152.608 1133.65 156.492L1133.65 222.486C1133.65 223.979 1134.55 225.325 1135.93 225.897 1137.31 226.468 1138.9 226.152 1139.96 225.096L1151.37 213.686C1153.04 212.008 1155.27 211.084 1157.64 211.084 1160.01 211.084 1162.25 212.008 1163.92 213.687 1165.6 215.364 1166.52 217.594 1166.52 219.966 1166.52 222.337 1165.6 224.568 1163.92 226.245L1151.78 238.387C1150.34 239.829 1150.34 242.166 1151.78 243.607 1152.5 244.328 1153.45 244.689 1154.39 244.689 1155.34 244.689 1156.28 244.328 1157 243.607L1169.15 231.465C1172.22 228.393 1173.91 224.309 1173.91 219.966 1173.91 215.622 1172.22 211.538 1169.14 208.466 1166.07 205.393 1161.99 203.701 1157.64 203.701 1153.3 203.701 1149.22 205.394 1146.15 208.466L1141.04 213.574 1141.04 200.311 1170.67 183.198C1180.71 177.403 1187.18 167.282 1188.26 155.836L1196.05 151.336C1196.95 151.761 1197.9 152.112 1198.88 152.376 1200.33 152.763 1201.8 152.955 1203.25 152.955 1206.16 152.955 1209.03 152.192 1211.62 150.7 1219.63 146.073 1222.38 135.792 1217.76 127.78ZM1124.26 275.49C1129.44 275.49 1133.65 279.705 1133.65 284.885 1133.65 290.065 1129.44 294.28 1124.26 294.28L1072.24 294.28C1067.06 294.28 1062.85 290.065 1062.85 284.885 1062.85 279.705 1067.06 275.49 1072.24 275.49ZM1118.02 144.903C1115.64 140.207 1110.76 136.979 1105.15 136.979 1102.86 136.979 1100.69 137.517 1098.77 138.469L1085.5 130.81C1083.74 129.79 1081.48 130.395 1080.46 132.161 1079.44 133.926 1080.04 136.184 1081.81 137.203L1092.99 143.657C1092.73 144.063 1092.49 144.482 1092.27 144.914 1089.87 143.129 1086.89 142.07 1083.68 142.07 1076.82 142.07 1071.07 146.879 1069.62 153.299 1067.3 151.907 1064.62 151.199 1061.83 151.269 1054.09 151.472 1047.79 158.018 1047.79 165.861L1047.79 183.395 1034.12 175.504C1032.83 174.758 1031.21 174.863 1030.03 175.773 1028.84 176.682 1028.32 178.214 1028.71 179.656L1032.89 195.242C1034.15 199.971 1031.34 204.85 1026.6 206.118 1024.31 206.733 1021.92 206.419 1019.87 205.23 1017.81 204.046 1016.34 202.132 1015.73 199.839L1005.91 163.2C1005.02 159.885 1004.75 156.48 1005.09 153.082 1005.24 151.637 1004.53 150.239 1003.27 149.512L998.016 146.478C998.485 145.876 998.918 145.235 999.311 144.555L1025.32 99.5129C1025.68 98.8839 1026 98.2332 1026.28 97.5657L1033.31 101.629C1034.4 102.254 1035.79 102.28 1036.89 101.696 1045.5 97.142 1055.67 97.328 1064.1 102.193L1122.4 135.848C1124.69 137.174 1126.03 139.597 1126.04 142.078 1123.11 142.192 1120.33 143.175 1118.02 144.903ZM1182.99 150.353C1181.82 150.97 1181.02 152.2 1181.01 153.617 1180.61 163.3 1175.37 171.96 1166.98 176.804L1141.04 191.785 1141.04 156.492C1141.04 150.963 1137.91 146.154 1133.33 143.733 1133.96 138.128 1131.21 132.416 1126.09 129.456L1109.06 119.624 1118.48 114.187C1119.77 113.441 1120.49 111.989 1120.29 110.509 1120.1 109.028 1119.03 107.811 1117.59 107.424L1102 103.243C1099.71 102.63 1097.8 101.162 1096.61 99.1088 1095.43 97.0558 1095.11 94.6637 1095.73 92.3721 1096.34 90.0765 1097.81 88.1618 1099.86 86.9781 1101.91 85.7924 1104.31 85.4778 1106.6 86.0926L1143.24 95.912C1146.57 96.8014 1149.65 98.2632 1152.41 100.257 1153.58 101.111 1155.16 101.192 1156.42 100.464L1161.67 97.4294C1161.96 98.1392 1162.3 98.8351 1162.69 99.5104L1188.69 144.557C1189.06 145.19 1189.46 145.789 1189.9 146.361ZM1207.92 144.306C1205.75 145.56 1203.22 145.894 1200.79 145.244 1198.37 144.595 1196.34 143.04 1195.09 140.867L1169.08 95.8199C1167.83 93.6464 1167.49 91.115 1168.14 88.6909 1168.79 86.2668 1170.35 84.241 1172.52 82.9863 1173.97 82.1506 1175.57 81.7239 1177.2 81.7239 1178.02 81.7239 1178.84 81.8312 1179.65 82.0482 1182.07 82.6979 1184.1 84.2523 1185.35 86.4258L1211.36 131.473C1213.95 135.958 1212.41 141.715 1207.92 144.306Z" fill="#FFFFFF"/></g></g></g></g></svg>